<svg width="119" height="128" viewBox="0 0 119 128" fill="none" xmlns="http://www.w3.org/2000/svg">
<path opacity="0.4" d="M59.5 127.697C92.3607 127.697 119 99.1117 119 63.8487C119 28.586 92.3607 0 59.5 0C26.639 0 0 28.586 0 63.8487C0 99.1117 26.639 127.697 59.5 127.697Z" fill="#292D32"/>
<path d="M59.5 31.477C47.1835 31.477 37.1875 42.2036 37.1875 55.42C37.1875 68.3813 46.648 78.9164 59.2025 79.2995H59.738H60.1545H60.2735C72.2925 78.8525 81.753 68.3813 81.8125 55.42C81.8125 42.2036 71.8165 31.477 59.5 31.477Z" fill="#292D32"/>
<path d="M99.8451 110.777C89.2541 121.249 75.0931 127.697 59.5041 127.697C43.9151 127.697 29.7541 121.249 19.1631 110.777C20.5911 104.967 24.4586 99.6678 30.1111 95.5814C46.3546 83.961 72.7726 83.961 88.8971 95.5814C94.6091 99.6678 98.4171 104.967 99.8451 110.777Z" fill="#292D32"/>
</svg>
