<svg width="132" height="135" viewBox="0 0 132 135" fill="none" xmlns="http://www.w3.org/2000/svg">
<path d="M69.3159 29.7736C71.386 14.2345 81.1298 3.73093 104.27 2C107.197 18.575 100.828 31.5045 87.9993 35.1499L69.3291 29.7605L69.3159 29.7736Z" fill="#588157" stroke="#3A5A40" stroke-width="3.26" stroke-miterlimit="10"/>
<path d="M30.6965 110.393C30.6965 110.393 18.8563 102.407 19.0013 82.3441C19.1464 62.281 30.3142 29.4458 64.6219 28.7639C98.9296 28.082 112.84 55.7376 112.998 78.4626C113.156 101.188 103.07 113.802 88.4738 114.025C73.8779 114.248 48.8129 114.13 48.8129 114.13C48.8129 114.13 35.3641 114.17 30.6965 110.38V110.393Z" fill="url(#paint0_radial_250_408)" stroke="#DDA15E" stroke-width="3.26" stroke-miterlimit="10"/>
<path d="M83.5691 60.9172C86.8605 60.9172 89.5287 58.2636 89.5287 54.9901C89.5287 51.7167 86.8605 49.063 83.5691 49.063C80.2776 49.063 77.6094 51.7167 77.6094 54.9901C77.6094 58.2636 80.2776 60.9172 83.5691 60.9172Z" fill="#664A2B"/>
<path d="M48.7995 60.9172C52.091 60.9172 54.7592 58.2636 54.7592 54.9901C54.7592 51.7167 52.091 49.063 48.7995 49.063C45.5081 49.063 42.8398 51.7167 42.8398 54.9901C42.8398 58.2636 45.5081 60.9172 48.7995 60.9172Z" fill="#664A2B"/>
<path d="M61.7871 60.9172C61.7871 60.9172 66.2964 67.4476 70.2652 60.9172" stroke="#664A2B" stroke-width="2.18" stroke-linecap="round" stroke-linejoin="round"/>
<path d="M81.3408 25.997C81.3408 25.997 85.2173 11.6119 97.7827 8.72702" stroke="#3A5A40" stroke-width="2.18" stroke-miterlimit="10" stroke-linecap="round"/>
<path d="M20.6099 113.475C26.2927 126.496 46.1495 133 66.0063 133C85.8631 133 105.707 126.483 111.39 113.461C112.853 110.118 110.638 106.105 107.671 106.616C93.8006 109.029 79.9166 110.223 66.0327 110.236C52.1356 110.236 38.2384 109.029 24.3281 106.616C21.3483 106.105 19.1332 110.118 20.6099 113.475Z" fill="url(#paint1_linear_250_408)" stroke="#B2B2B2" stroke-width="3.26" stroke-miterlimit="10"/>
<ellipse cx="76.6814" cy="44.7918" rx="5" ry="2.5" transform="rotate(-24.5539 76.6814 44.7918)" fill="#664A2B"/>
<ellipse cx="57.5903" cy="44.4512" rx="5" ry="2.5" transform="rotate(-153.792 57.5903 44.4512)" fill="#664A2B"/>
<path d="M19.7759 68C27.5517 70.6903 47.8828 76.2726 67 77.0796C51.6379 82.1239 19.7759 98.7699 15.2241 125C13.1379 124.832 7.37241 123.184 1 117.938C3.46552 108.522 10.6724 85.3522 19.7759 68Z" fill="#E24D4D" stroke="#AB2E2E"/>
<path d="M112.224 68C104.448 70.6903 84.1172 76.2726 65 77.0796C80.3621 82.1239 112.224 98.7699 116.776 125C118.862 124.832 124.628 123.184 131 117.938C128.534 108.522 121.328 85.3522 112.224 68Z" fill="#E24D4D" stroke="#AB2E2E"/>
<defs>
<radialGradient id="paint0_radial_250_408" cx="0" cy="0" r="1" gradientUnits="userSpaceOnUse" gradientTransform="translate(67.0084 83.4325) scale(63.1173 62.7725)">
<stop stop-color="#EBD7C1"/>
<stop offset="0.17" stop-color="#E9D2B8"/>
<stop offset="0.45" stop-color="#E6C49F"/>
<stop offset="0.8" stop-color="#E0AF78"/>
<stop offset="1" stop-color="#DDA15E"/>
</radialGradient>
<linearGradient id="paint1_linear_250_408" x1="-2.47727" y1="119.782" x2="111.746" y2="119.782" gradientUnits="userSpaceOnUse">
<stop stop-color="#B2B2B2"/>
<stop offset="0.28" stop-color="#BABABA"/>
<stop offset="0.73" stop-color="#D3D3D3"/>
<stop offset="1" stop-color="#E5E5E5"/>
</linearGradient>
</defs>
</svg>
