<?xml version="1.0" encoding="UTF-8"?>
<svg id="Layer_2" data-name="Layer 2" xmlns="http://www.w3.org/2000/svg" viewBox="0 0 125.63 125.63">
  <defs>
    <style>
      .cls-1 {
        fill: #a3b18a;
      }

      .cls-2 {
        fill: #3a5a40;
      }
    </style>
  </defs>
  <g id="Logos">
    <g id="Logo_Green">
      <path class="cls-2" d="m92.36,12.62l-.26-1.46-1.47.11c-16.1,1.21-25.15,7.91-27.63,20.42,1.12.03,2.22.1,3.3.21,4.97.51,9.48,1.87,13.51,4.06,1.12.61,2.21,1.28,3.26,2.02,7.72-4.38,11.33-13.83,9.3-25.36Zm-16.25,17.24c-.13.49-.57.81-1.05.81-.09,0-.19-.01-.28-.04-.58-.16-.92-.75-.77-1.33.13-.47,3.22-11.63,13.28-13.95.59-.13,1.17.23,1.31.82.13.59-.23,1.17-.82,1.31-8.8,2.03-11.64,12.29-11.67,12.39Z"/>
      <path class="cls-2" d="m89.81,91.6c3.85-4.39,5.99-11.41,5.93-20.37-.07-10.67-4.14-20.95-10.88-27.52-6.17-6.01-14.28-8.95-24.14-8.76-25.87.52-32.9,25.89-33,39.24-.07,8.85,3.01,14.37,5.4,17.32,9.52,1.51,19.14,2.29,28.64,2.29,9.3,0,18.72-.74,28.05-2.2Zm-14.75-33.77c-2.5,0-4.52-2.02-4.52-4.52s2.02-4.52,4.52-4.52,4.52,2.02,4.52,4.52-2.02,4.52-4.52,4.52Zm-26.37,0c-2.5,0-4.52-2.02-4.52-4.52s2.02-4.52,4.52-4.52,4.52,2.02,4.52,4.52-2.02,4.52-4.52,4.52Zm8.95.62c-.34-.5-.21-1.17.28-1.51.49-.34,1.17-.21,1.51.28.32.46,1.46,1.77,2.57,1.74.68-.02,1.37-.59,2.03-1.69.31-.51.98-.68,1.5-.37.51.31.68.98.37,1.49-1.07,1.78-2.36,2.7-3.84,2.74-.04,0-.07,0-.1,0-2.41,0-4.13-2.41-4.32-2.69Z"/>
      <circle class="cls-1" cx="75.06" cy="53.3" r="4.52"/>
      <circle class="cls-1" cx="48.69" cy="53.3" r="4.52" transform="translate(-23.43 50.04) rotate(-45)"/>
      <path class="cls-1" d="m62.07,61.13c1.47-.04,2.76-.96,3.84-2.74.31-.51.15-1.18-.37-1.49-.52-.31-1.18-.15-1.5.37-.66,1.1-1.35,1.67-2.03,1.69-1.11.03-2.25-1.28-2.57-1.74-.34-.49-1.02-.62-1.51-.28-.5.34-.62,1.02-.28,1.51.19.28,1.91,2.69,4.32,2.69.03,0,.07,0,.1,0Z"/>
      <path class="cls-1" d="m88.59,16.16c-.13-.58-.71-.95-1.31-.82-10.06,2.32-13.15,13.48-13.28,13.95-.16.58.19,1.18.77,1.33.09.03.19.04.28.04.48,0,.92-.32,1.05-.81.03-.1,2.87-10.36,11.67-12.39.58-.14.95-.72.82-1.31Z"/>
      <path class="cls-2" d="m61.76,97.06c-10.59,0-21.32-.94-31.91-2.78-.04,0-.07,0-.11,0-.23,0-.46.14-.67.41-.43.55-.7,1.58-.27,2.57h0c4.17,9.61,19.54,13.91,32.92,13.91h0c13.38,0,28.75-4.3,32.92-13.92.43-.99.16-2.02-.27-2.56-.25-.31-.51-.45-.77-.4-10.57,1.84-21.29,2.78-31.86,2.78Z"/>
      <path class="cls-1" d="m110.91,0H14.72C6.6,0,0,6.6,0,14.72v96.19c0,8.12,6.6,14.72,14.72,14.72h96.19c8.12,0,14.72-6.6,14.72-14.72V14.72c0-8.12-6.6-14.72-14.72-14.72Zm-20.29,11.27l1.47-.11.26,1.46c2.03,11.53-1.58,20.98-9.3,25.36-1.05-.74-2.14-1.41-3.26-2.02-4.03-2.19-8.54-3.55-13.51-4.06-1.08-.11-2.18-.18-3.3-.21,2.48-12.52,11.54-19.21,27.63-20.42Zm-28.89,99.89h0c-13.38,0-28.75-4.3-32.92-13.91h0c-.43-.99-.16-2.02.27-2.57.21-.27.44-.41.67-.41.04,0,.07,0,.11,0,10.58,1.84,21.32,2.78,31.91,2.78,10.57,0,21.29-.94,31.86-2.78.26-.05.53.09.77.4.43.54.69,1.58.27,2.56-4.17,9.61-19.54,13.91-32.92,13.92Zm28.07-19.56c-9.33,1.46-18.75,2.2-28.05,2.2-9.5,0-19.12-.78-28.64-2.29-2.4-2.95-5.47-8.47-5.4-17.32.1-13.35,7.13-38.72,33-39.24,9.86-.18,17.96,2.75,24.14,8.76,6.74,6.57,10.81,16.85,10.88,27.52.06,8.96-2.09,15.98-5.93,20.37Z"/>
    </g>
  </g>
</svg>