<?xml version="1.0" encoding="UTF-8"?>
<svg id="Layer_2" data-name="Layer 2" xmlns="http://www.w3.org/2000/svg" viewBox="0 0 126.59 126.59">
  <defs>
    <style>
      .cls-1 {
        fill: #a3b18a;
      }

      .cls-2 {
        fill: #dda15e;
      }

      .cls-3 {
        fill: #ebd7c1;
      }

      .cls-4 {
        fill: #3a5a40;
      }

      .cls-5 {
        fill: #e5e5e5;
      }

      .cls-6 {
        fill: #664a2b;
      }

      .cls-7 {
        fill: #588157;
      }

      .cls-8 {
        fill: #666;
      }
    </style>
  </defs>
  <g id="Logos">
    <g id="Logo_Colour">
      <path class="cls-1" d="m112.42,4.35H14.18c-5.42,0-9.82,4.41-9.82,9.82v98.24c0,5.42,4.41,9.82,9.82,9.82h98.24c5.42,0,9.82-4.41,9.82-9.82V14.18c0-5.42-4.41-9.82-9.82-9.82Zm-15.01,87.7c1.27,1.62,1.55,3.93.7,5.88-5.08,11.72-22.52,15.88-35.91,15.88h0c-13.39,0-30.83-4.16-35.92-15.87-.85-1.96-.58-4.27.7-5.89.63-.8,1.46-1.33,2.35-1.55-2.29-3.66-4.46-9.19-4.4-16.96.13-16.79,9.87-41.95,36.2-42.48.79-.02,1.57,0,2.34.02,2.48-12.52,11.54-19.21,27.63-20.43l1.47-.11.26,1.46c2.03,11.53-1.58,20.98-9.3,25.36,1.43,1.01,2.79,2.14,4.07,3.39,7.36,7.16,11.79,18.32,11.87,29.84.05,8.19-1.6,14.95-4.67,19.86.99.16,1.92.71,2.62,1.59Z"/>
      <path class="cls-4" d="m112.42,0H14.18C6.36,0,0,6.36,0,14.18v98.24c0,7.82,6.36,14.18,14.18,14.18h98.24c7.82,0,14.18-6.36,14.18-14.18V14.18c0-7.82-6.36-14.18-14.18-14.18Zm9.82,112.42c0,5.42-4.41,9.82-9.82,9.82H14.18c-5.42,0-9.82-4.41-9.82-9.82V14.18c0-5.42,4.41-9.82,9.82-9.82h98.24c5.42,0,9.82,4.41,9.82,9.82v98.24Z"/>
      <path class="cls-7" d="m89.82,14.05c-13.45,1.35-20.85,6.88-23.08,17.25,4.97.51,9.49,1.87,13.51,4.05,7.26-3.07,10.91-11.13,9.57-21.3Zm-14.96,16.82c-.13.49-.57.8-1.05.8-.09,0-.19-.01-.28-.04-.58-.16-.92-.75-.77-1.33.13-.47,3.23-11.62,13.28-13.95.59-.13,1.17.23,1.31.82.14.59-.23,1.17-.82,1.31-8.77,2.03-11.64,12.29-11.67,12.39Z"/>
      <path class="cls-4" d="m66.74,31.3c2.23-10.37,9.63-15.9,23.08-17.25,1.34,10.17-2.31,18.23-9.57,21.3,1.12.61,2.21,1.28,3.26,2.02,7.72-4.38,11.33-13.83,9.3-25.36l-.26-1.46-1.47.11c-16.1,1.21-25.15,7.91-27.63,20.43,1.12.03,2.22.1,3.3.21Z"/>
      <path class="cls-3" d="m62.21,93.19c9.31,0,18.73-.74,28.05-2.2,3.85-4.39,5.99-11.41,5.93-20.37-.07-10.67-4.14-20.95-10.88-27.52-6.17-6.01-14.28-8.95-24.14-8.76-25.87.52-32.9,25.89-33,39.24-.07,8.85,3.01,14.37,5.4,17.32,9.52,1.51,19.13,2.29,28.62,2.29h.02Zm13.3-35.97c-2.5,0-4.52-2.02-4.52-4.52s2.02-4.52,4.52-4.52,4.52,2.02,4.52,4.52-2.02,4.52-4.52,4.52Zm-26.37,0c-2.5,0-4.52-2.02-4.52-4.52s2.02-4.52,4.52-4.52,4.52,2.02,4.52,4.52-2.02,4.52-4.52,4.52Zm8.95.62c-.34-.5-.21-1.17.28-1.51.5-.34,1.17-.21,1.51.28.32.46,1.46,1.74,2.53,1.74.01,0,.03,0,.04,0,.68-.02,1.37-.59,2.03-1.69.31-.51.98-.68,1.49-.37.51.31.68.98.37,1.5-1.07,1.77-2.36,2.7-3.84,2.74-.03,0-.07,0-.1,0-2.41,0-4.13-2.41-4.32-2.69Z"/>
      <path class="cls-2" d="m87.58,40.76c-1.28-1.25-2.64-2.38-4.07-3.39-1.05-.74-2.14-1.41-3.26-2.02-4.02-2.18-8.54-3.54-13.51-4.05-1.08-.11-2.18-.18-3.3-.21-.77-.02-1.55-.03-2.34-.02-26.33.53-36.07,25.69-36.2,42.48-.06,7.77,2.11,13.3,4.4,16.96.5-.12,1.03-.14,1.56-.05.9.16,1.8.3,2.71.44-2.4-2.95-5.47-8.47-5.4-17.32.1-13.35,7.13-38.72,33-39.24,9.85-.19,17.96,2.75,24.14,8.76,6.74,6.57,10.81,16.85,10.88,27.52.06,8.96-2.09,15.98-5.93,20.37,1.08-.17,2.17-.34,3.25-.53.43-.07.86-.07,1.28,0,3.06-4.91,4.72-11.67,4.67-19.86-.08-11.52-4.51-22.68-11.87-29.84Z"/>
      <circle class="cls-6" cx="75.51" cy="52.69" r="4.52" transform="translate(-7.47 12.78) rotate(-9.22)"/>
      <circle class="cls-6" cx="49.14" cy="52.69" r="4.52" transform="translate(-18.35 77.93) rotate(-67.5)"/>
      <path class="cls-6" d="m62.52,60.52c1.47-.04,2.76-.96,3.84-2.74.31-.51.15-1.18-.37-1.5-.51-.31-1.18-.15-1.49.37-.66,1.1-1.35,1.67-2.03,1.69-.01,0-.03,0-.04,0-1.07,0-2.21-1.28-2.53-1.74-.34-.5-1.02-.62-1.51-.28-.5.34-.62,1.02-.28,1.51.19.28,1.91,2.69,4.32,2.69.03,0,.07,0,.1,0Z"/>
      <path class="cls-4" d="m87.35,17.18c-.14-.58-.72-.95-1.31-.82-10.05,2.32-13.15,13.47-13.28,13.95-.16.58.19,1.18.77,1.33.09.03.19.04.28.04.48,0,.92-.32,1.05-.8.03-.1,2.9-10.37,11.67-12.39.59-.14.95-.72.82-1.31Z"/>
      <path class="cls-5" d="m62.21,96.45h-.02c-10.58,0-21.31-.94-31.89-2.78-.27-.04-.53.09-.78.4-.43.54-.7,1.58-.27,2.57,4.17,9.61,19.54,13.9,32.92,13.9h0c13.38,0,28.75-4.3,32.92-13.91.43-.99.16-2.02-.27-2.56-.25-.31-.51-.45-.77-.4-10.56,1.84-21.28,2.78-31.86,2.78Z"/>
      <path class="cls-8" d="m93.5,90.46c-1.08.19-2.16.36-3.25.53-9.32,1.46-18.74,2.2-28.05,2.2h-.02c-9.49,0-19.1-.78-28.62-2.29-.9-.14-1.81-.29-2.71-.44-.53-.09-1.05-.07-1.56.05-.89.21-1.72.74-2.35,1.55-1.27,1.62-1.55,3.93-.7,5.89,5.09,11.71,22.53,15.87,35.92,15.87h0c13.39,0,30.83-4.16,35.91-15.88.85-1.96.58-4.27-.7-5.88-.69-.88-1.62-1.42-2.62-1.59-.42-.07-.85-.08-1.28,0Zm.56,3.22c.27-.05.53.09.77.4.43.54.69,1.58.27,2.56-4.17,9.61-19.54,13.91-32.92,13.91h0c-13.38,0-28.75-4.3-32.92-13.9-.43-.99-.16-2.02.27-2.57.25-.31.51-.45.78-.4,10.58,1.84,21.31,2.78,31.89,2.78h.02c10.58,0,21.29-.94,31.86-2.78Z"/>
    </g>
  </g>
</svg>