<svg width="167" height="137" viewBox="0 0 167 137" fill="none" xmlns="http://www.w3.org/2000/svg">
<circle cx="107" cy="54" r="5" fill="#D9D9D9"/>
<circle cx="121" cy="40" r="9" fill="#D9D9D9"/>
<ellipse cx="145" cy="16" rx="22" ry="16" fill="#D9D9D9"/>
<path d="M145.85 20.564C145.586 20.564 145.222 20.556 144.758 20.54C144.294 20.524 143.826 20.504 143.354 20.48C142.89 20.448 142.506 20.416 142.202 20.384C142.146 19.624 142.094 18.844 142.046 18.044C141.998 17.244 141.954 16.436 141.914 15.62C141.882 14.796 141.854 13.972 141.83 13.148C141.806 12.316 141.79 11.496 141.782 10.688C141.774 9.88 141.774 9.092 141.782 8.324L146.774 8.528C146.742 8.824 146.69 9.332 146.618 10.052C146.554 10.772 146.482 11.608 146.402 12.56C146.33 13.504 146.254 14.48 146.174 15.488C146.094 16.496 146.026 17.448 145.97 18.344C145.914 19.232 145.874 19.972 145.85 20.564ZM144.182 26.312C143.406 26.312 142.75 26.072 142.214 25.592C141.686 25.104 141.422 24.488 141.422 23.744C141.422 23.008 141.686 22.428 142.214 22.004C142.75 21.58 143.394 21.368 144.146 21.368C144.89 21.368 145.526 21.588 146.054 22.028C146.582 22.468 146.846 23.024 146.846 23.696C146.846 24.504 146.59 25.144 146.078 25.616C145.574 26.08 144.942 26.312 144.182 26.312Z" fill="#664A2B"/>
<path d="M52.3159 31.7736C54.386 16.2345 64.1298 5.73093 87.2697 4C90.1968 20.575 83.8284 33.5045 70.9993 37.1499L52.3291 31.7605L52.3159 31.7736Z" fill="#588157" stroke="#3A5A40" stroke-width="3.26" stroke-miterlimit="10"/>
<path d="M13.6965 112.393C13.6965 112.393 1.85629 104.407 2.00132 84.344C2.14636 64.281 13.3142 31.4457 47.6219 30.7639C81.9296 30.082 95.8399 57.7375 95.9982 80.4626C96.1564 103.188 86.0698 115.802 71.4738 116.025C56.8779 116.248 31.8129 116.13 31.8129 116.13C31.8129 116.13 18.3641 116.17 13.6965 112.38V112.393Z" fill="url(#paint0_radial_250_410)" stroke="#DDA15E" stroke-width="3.26" stroke-miterlimit="10"/>
<path d="M66.5691 62.9172C69.8605 62.9172 72.5287 60.2635 72.5287 56.9901C72.5287 53.7166 69.8605 51.063 66.5691 51.063C63.2776 51.063 60.6094 53.7166 60.6094 56.9901C60.6094 60.2635 63.2776 62.9172 66.5691 62.9172Z" fill="#664A2B"/>
<path d="M31.7995 62.9172C35.091 62.9172 37.7592 60.2635 37.7592 56.9901C37.7592 53.7166 35.091 51.063 31.7995 51.063C28.5081 51.063 25.8398 53.7166 25.8398 56.9901C25.8398 60.2635 28.5081 62.9172 31.7995 62.9172Z" fill="#664A2B"/>
<path d="M44.7871 62.9172C44.7871 62.9172 49.2964 69.4476 53.2652 62.9172" stroke="#664A2B" stroke-width="2.18" stroke-linecap="round" stroke-linejoin="round"/>
<path d="M64.3408 27.997C64.3408 27.997 68.2173 13.6119 80.7827 10.727" stroke="#3A5A40" stroke-width="2.18" stroke-miterlimit="10" stroke-linecap="round"/>
<path d="M3.6099 115.475C9.2927 128.496 29.1495 135 49.0063 135C68.8631 135 88.7068 128.483 94.3896 115.461C95.8531 112.118 93.638 108.105 90.6714 108.616C76.8006 111.029 62.9166 112.223 49.0327 112.236C35.1356 112.236 21.2384 111.029 7.32811 108.616C4.34827 108.105 2.13317 112.118 3.6099 115.475Z" fill="url(#paint1_linear_250_410)" stroke="#B2B2B2" stroke-width="3.26" stroke-miterlimit="10"/>
<defs>
<radialGradient id="paint0_radial_250_410" cx="0" cy="0" r="1" gradientUnits="userSpaceOnUse" gradientTransform="translate(50.0084 85.4324) scale(63.1173 62.7725)">
<stop stop-color="#EBD7C1"/>
<stop offset="0.17" stop-color="#E9D2B8"/>
<stop offset="0.45" stop-color="#E6C49F"/>
<stop offset="0.8" stop-color="#E0AF78"/>
<stop offset="1" stop-color="#DDA15E"/>
</radialGradient>
<linearGradient id="paint1_linear_250_410" x1="-19.4773" y1="121.782" x2="94.7456" y2="121.782" gradientUnits="userSpaceOnUse">
<stop stop-color="#B2B2B2"/>
<stop offset="0.28" stop-color="#BABABA"/>
<stop offset="0.73" stop-color="#D3D3D3"/>
<stop offset="1" stop-color="#E5E5E5"/>
</linearGradient>
</defs>
</svg>
