<svg width="165" height="165" viewBox="0 0 165 165" fill="none" xmlns="http://www.w3.org/2000/svg">
<path d="M82.5 162.988C126.952 162.988 162.988 126.952 162.988 82.5C162.988 38.048 126.952 2.01245 82.5 2.01245C38.048 2.01245 2.01245 38.048 2.01245 82.5C2.01245 126.952 38.048 162.988 82.5 162.988Z" fill="#E6E7E8" stroke="#A7A9AC" stroke-width="4" stroke-miterlimit="10"/>
<path d="M82.5 137.171C112.694 137.171 137.171 112.694 137.171 82.5C137.171 52.3062 112.694 27.8292 82.5 27.8292C52.3062 27.8292 27.8292 52.3062 27.8292 82.5C27.8292 112.694 52.3062 137.171 82.5 137.171Z" fill="#E6E7E8" stroke="#A7A9AC" stroke-width="4" stroke-miterlimit="10"/>
<path d="M38.9153 91.8903L114.169 40.8439C117.216 38.7786 116.214 34.0556 112.589 33.4026L50.0367 22.1901C46.0275 21.4712 42.2056 24.1592 41.5324 28.1735L31.5752 87.1623C30.8817 91.2828 35.4629 94.229 38.9203 91.8801L38.9153 91.8903Z" fill="#F7E1C6" stroke="#C6AB8B" stroke-width="8" stroke-miterlimit="10"/>
<path d="M40.606 91.8903L115.854 40.8439C118.902 38.7786 117.899 34.0556 114.275 33.4026L51.7224 22.1901C47.7132 21.4712 43.8913 24.1592 43.218 28.1735L33.2609 87.1623C32.5674 91.2828 37.1486 94.229 40.606 91.8801V91.8903Z" fill="#F7E1C6" stroke="#C6AB8B" stroke-width="4" stroke-miterlimit="10"/>
<path d="M62.5452 85.598L137.794 34.5517C140.841 32.4864 139.839 27.7634 136.214 27.1104L73.6616 15.8978C69.6524 15.179 65.8305 17.867 65.1573 21.8812L55.2001 80.87C54.5066 84.9906 59.0878 87.9367 62.5452 85.5879V85.598Z" fill="#F7E1C6" stroke="#C6AB8B" stroke-width="8" stroke-miterlimit="10"/>
<path d="M64.236 85.598L139.484 34.5517C142.532 32.4864 141.529 27.7634 137.905 27.1104L75.3524 15.8978C71.3432 15.179 67.5213 17.867 66.8481 21.8812L56.8909 80.87C56.1974 84.9906 60.7786 87.9367 64.236 85.5879V85.598Z" fill="#F7E1C6" stroke="#C6AB8B" stroke-width="4" stroke-miterlimit="10"/>
<path d="M79.0932 136.71C80.703 137.611 82.5355 138.482 84.5856 139.216C92.3965 142.02 101.154 140.254 107.092 134.457C110.904 130.737 113.774 125.781 111.076 120.299C109.036 116.153 109.142 107.973 111.769 102.349C114.396 96.7245 109.653 82.3076 93.4848 83.9933C93.4848 83.9933 80.1613 85.5423 74.0109 79.5133C67.8554 73.4844 49.5659 76.2179 51.7275 89.3642C53.894 102.51 48.2852 99.6504 39.5328 107.461C26.0676 119.484 36.1817 131.714 47.612 136.027C52.7146 137.95 57.8931 137.024 62.0643 135.409C67.6326 133.253 73.8793 133.789 79.0882 136.71H79.0932Z" fill="white"/>
<path d="M79.7614 135.515C88.3468 140.486 98.471 140.456 105.968 133.506C109.511 130.236 112.22 125.533 109.881 120.856C107.497 115.373 108.17 107.77 110.524 102.364C111.02 101.361 111.314 100.288 111.354 99.1493C111.496 94.5225 108.975 89.7894 105.077 87.2381C101.559 84.8691 97.1194 84.3679 92.9482 84.8235C86.656 85.112 79.6602 84.6868 74.4614 80.708C74.0159 80.3233 73.4895 79.8525 73.0541 79.4577C72.143 78.7237 71.0597 78.182 69.9258 77.7973C64.3574 76.0154 57.0022 77.1898 53.5093 82.2317C52.1831 84.2414 51.8489 86.7471 52.2286 89.1111C52.4159 90.3463 52.6083 91.6168 52.6893 92.8976C53.0537 97.7268 51.6971 100.319 47.4702 102.652C40.5351 106.555 32.0004 113.343 34.2531 122.268C35.5236 126.925 39.3303 130.514 43.4104 132.914C47.531 135.409 52.3096 136.685 57.0933 135.647C59.6041 135.232 61.6948 134.134 64.2309 133.47C69.4246 132.134 75.0739 132.954 79.7614 135.526V135.515ZM78.42 137.905C74.345 135.571 69.3892 134.746 64.8029 135.834C62.4693 136.406 59.9838 137.55 57.4983 137.895C52.1729 138.927 46.9185 137.449 42.4081 134.569C36.9512 131.228 31.889 125.477 32.3801 118.674C32.942 111.972 38.3483 107.066 43.6331 103.624C46.5034 101.62 50.6745 100.4 51.4187 96.5625C52.2742 92.8621 50.553 89.0757 51.2111 85.35C52.0717 79.9284 57.4983 76.6735 62.5806 76.0964C66.4025 75.6408 70.6193 76.1318 73.7831 78.5414C74.6892 79.3564 75.6206 80.1917 76.6887 80.7789C80.9612 83.1682 86.1397 83.5428 90.9689 83.401C93.5051 83.2795 96.0513 82.8442 98.6077 83.1884C101.21 83.4517 103.796 84.292 106.054 85.7094C111.136 88.9187 114.417 95.2616 113.283 101.311C113.217 101.903 112.807 102.713 112.604 103.275C111.683 105.462 111.202 107.856 111.005 110.225C110.787 112.873 110.904 115.606 111.643 118.152C111.82 118.785 112.407 120.066 112.67 120.658C115.966 128.889 108.357 136.953 101.341 140.102C93.7025 143.488 85.431 142.066 78.4149 137.91L78.42 137.905Z" fill="#D1D3D4"/>
<path d="M75.7978 117.874C83.8775 117.874 90.4273 113.427 90.4273 107.942C90.4273 102.457 83.8775 98.0103 75.7978 98.0103C67.7182 98.0103 61.1683 102.457 61.1683 107.942C61.1683 113.427 67.7182 117.874 75.7978 117.874Z" fill="#FBB040"/>
<path d="M91.3183 107.942C91.3841 111.653 88.7416 114.811 85.7196 116.593C79.6703 120.066 71.9405 119.98 65.8862 116.573C62.8489 114.822 60.2065 111.648 60.2774 107.942C60.5153 102.389 65.9672 99.0683 70.8471 98.0356C78.2125 96.3043 90.6349 98.7949 91.3183 107.942ZM89.5313 107.942C89.5921 104.93 87.3648 102.354 84.8388 100.845C79.4324 97.6863 72.1582 97.7774 66.762 100.865C57.9944 106.388 62.6313 114.366 71.2571 116.112C77.4633 117.596 88.8125 115.682 89.5313 107.942Z" fill="#F7941D"/>
<path d="M88.0481 107.942C87.5166 103.366 83.2594 101.746 81.1637 101.22C80.3841 101.027 79.5691 101.017 78.7946 101.22C76.8609 101.726 76.7444 102.627 77.1292 103.412C77.5645 104.302 78.5061 104.849 79.4982 104.859C83.4315 104.895 88.0481 107.937 88.0481 107.937V107.942Z" fill="#FFCD8A" stroke="#FFCD8A" stroke-width="1.99" stroke-linecap="round" stroke-linejoin="round"/>
<path d="M91.6169 85.2538C92.766 83.5732 94.3302 82.2267 96.1373 81.2902C106.398 75.9598 116.836 66.7974 119.701 58.3335C122.744 49.3331 127.047 47.6879 127.047 47.6879C132.387 46.1693 134.807 50.1329 135.85 53.1448C136.442 54.8508 136.584 56.663 136.325 58.4499C132.969 81.3509 109.268 92.361 100.354 95.7324C97.5395 96.7954 94.3352 96.3955 91.9965 94.5124C88.4024 91.622 89.8502 87.8456 91.6219 85.2538H91.6169Z" fill="#CC6666"/>
<path d="M91.4042 85.107C92.6293 83.2239 94.4567 81.7255 96.441 80.7232C98.3748 79.7007 100.233 78.5263 102.05 77.3114C107.436 73.616 112.478 69.2424 116.193 63.8462C117.408 62.0592 118.461 60.1559 119.134 58.131C120.577 53.9902 122.744 49.1711 126.819 47.0248C131.451 45.5922 134.928 48.2599 136.467 52.5526C138.001 56.3036 136.968 60.4343 135.85 64.1499C133.577 71.5203 128.899 78.0049 123.184 83.1024C116.36 89.1415 108.327 93.7025 99.7668 96.6942C96.8207 97.5143 93.419 96.8359 91.1764 94.6947C88.0683 91.8346 89.3541 88.1291 91.4042 85.102V85.107ZM91.8294 85.3956C89.5363 88.5442 89.5313 92.2952 93.1304 94.4618C95.3729 95.864 98.2431 95.8944 100.638 94.8162C108.423 91.708 115.874 87.4913 122.116 81.9078C127.624 76.9773 132.149 70.7863 134.296 63.669C135.247 60.2673 136.32 56.5415 134.994 53.1044C133.754 49.5103 131.101 47.2222 127.234 48.3662C123.787 50.305 121.63 54.6939 120.268 58.5208C118.735 62.7882 115.9 66.3873 112.802 69.5967C108.109 74.3349 102.657 78.258 96.765 81.3509C94.8009 82.2874 93.0697 83.6289 91.8193 85.4006L91.8294 85.3956Z" fill="#A55151"/>
<path d="M98.8101 79.8171C101.69 80.5258 105.867 83.8871 105.867 83.8871C104.454 79.6501 100.663 78.6934 100.663 78.6934L98.8051 79.8171H98.8101Z" fill="#A55151" stroke="#A55151" stroke-miterlimit="10"/>
<path d="M106.692 74.755C109.572 75.4637 113.748 78.825 113.748 78.825C112.336 74.588 108.545 73.6312 108.545 73.6312L106.687 74.755H106.692Z" fill="#A55151" stroke="#A55151" stroke-miterlimit="10"/>
<path d="M111.481 70.4522C114.442 70.6041 119.18 73.1149 119.18 73.1149C116.993 69.2171 113.09 68.9994 113.09 68.9994L111.481 70.4522Z" fill="#A55151" stroke="#A55151" stroke-miterlimit="10"/>
<path d="M116.107 65.3192C119.074 65.461 123.817 67.9465 123.817 67.9465C121.61 64.0638 117.707 63.8613 117.707 63.8613L116.102 65.3192H116.107Z" fill="#A55151" stroke="#A55151" stroke-miterlimit="10"/>
<path d="M119.317 59.4775C122.243 58.9966 127.406 60.4393 127.406 60.4393C124.435 57.0983 120.577 57.7159 120.577 57.7159L119.312 59.4775H119.317Z" fill="#A55151" stroke="#A55151" stroke-miterlimit="10"/>
<path d="M92.4723 88.7315C94.2542 87.7495 96.2639 87.2585 98.2988 87.2433C109.861 87.1268 123.316 83.6795 129.694 77.4228C136.477 70.7712 141.058 71.2521 141.058 71.2521C146.51 72.3151 146.875 76.9419 146.44 80.1006C146.197 81.8876 145.503 83.5732 144.465 85.0463C131.117 103.953 104.996 103.057 95.5197 102.03C92.5331 101.706 89.8552 99.8986 88.615 97.16C86.7167 92.9584 89.7135 90.2451 92.4673 88.7315H92.4723Z" fill="#CC6666"/>
<path d="M92.3509 88.5037C94.2948 87.3749 96.6031 86.8687 98.8253 86.8687C101.017 86.8282 103.199 86.6206 105.371 86.3624C111.845 85.5019 118.32 83.8769 124.075 80.7486C125.968 79.7058 127.765 78.4807 129.279 76.9824C132.438 73.94 136.553 70.6243 141.155 70.5535C145.933 71.3685 147.827 75.3169 147.26 79.8475C146.936 83.8871 144.146 87.1015 141.464 89.911C136.103 95.4591 129.001 99.1291 121.6 101.088C112.782 103.386 103.553 103.827 94.5631 102.622C91.5663 102.02 88.8378 99.8783 87.8051 96.9574C86.327 92.9989 89.1466 90.2755 92.3458 88.5037H92.3509ZM92.5989 88.9542C89.1365 90.7057 87.4255 94.0923 89.6629 97.6307C90.7816 99.4784 92.7457 100.774 94.8668 101.174C103.619 102.202 112.68 101.777 121.19 99.5442C128.332 97.6358 135.171 94.1632 140.304 88.7821C142.689 86.1802 145.336 83.3404 145.706 79.6754C146.227 75.9092 144.891 72.6694 140.932 71.9405C136.978 72.1126 133.076 75.0486 130.129 77.848C126.834 80.9612 122.678 82.8898 118.461 84.3528C114.245 85.7702 109.876 86.6712 105.477 87.1724C103.275 87.4052 101.063 87.5774 98.8456 87.5875C96.6689 87.5369 94.5226 87.952 92.604 88.9644L92.5989 88.9542Z" fill="#A55151"/>
<path d="M101.351 87.1318C103.599 89.0706 105.806 93.9505 105.806 93.9505C106.459 89.5313 103.513 86.9698 103.513 86.9698L101.351 87.1318Z" fill="#A55151" stroke="#A55151" stroke-miterlimit="10"/>
<path d="M110.666 86.1802C112.913 88.119 115.12 92.9988 115.12 92.9988C115.773 88.5796 112.827 86.0182 112.827 86.0182L110.666 86.1802Z" fill="#A55151" stroke="#A55151" stroke-miterlimit="10"/>
<path d="M116.887 84.5097C119.459 85.9878 122.546 90.3666 122.546 90.3666C122.354 85.9018 118.978 83.9427 118.978 83.9427L116.887 84.5097Z" fill="#A55151" stroke="#A55151" stroke-miterlimit="10"/>
<path d="M123.331 82.0242C125.913 83.4872 129.021 87.8558 129.021 87.8558C128.808 83.391 125.422 81.4471 125.422 81.4471L123.331 82.0242Z" fill="#A55151" stroke="#A55151" stroke-miterlimit="10"/>
<path d="M128.833 78.2631C131.663 79.1591 135.617 82.7785 135.617 82.7785C134.478 78.4605 130.757 77.2659 130.757 77.2659L128.833 78.2682V78.2631Z" fill="#A55151" stroke="#A55151" stroke-miterlimit="10"/>
</svg>
