<svg width="162" height="162" viewBox="0 0 162 162" fill="none" xmlns="http://www.w3.org/2000/svg">
<path d="M81 160C124.631 160 160 124.631 160 81C160 37.3695 124.631 2 81 2C37.3695 2 2 37.3695 2 81C2 124.631 37.3695 160 81 160Z" fill="#E6E7E8" stroke="#A7A9AC" stroke-width="4" stroke-miterlimit="10"/>
<path d="M81 134.66C110.636 134.66 134.66 110.636 134.66 81C134.66 51.3642 110.636 27.3396 81 27.3396C51.3642 27.3396 27.3396 51.3642 27.3396 81C27.3396 110.636 51.3642 134.66 81 134.66Z" fill="#E6E7E8" stroke="#A7A9AC" stroke-width="4" stroke-miterlimit="10"/>
<path d="M81.2782 152.652C121.256 152.652 153.665 120.243 153.665 80.2647C153.665 40.2865 121.256 7.87781 81.2782 7.87781C41.3001 7.87781 8.89136 40.2865 8.89136 80.2647C8.89136 120.243 41.3001 152.652 81.2782 152.652Z" fill="#D38E4A" stroke="#BA803A" stroke-width="4" stroke-miterlimit="10"/>
<path d="M81.2783 141.214C114.695 141.214 141.785 114.124 141.785 80.7068C141.785 47.2896 114.695 20.1997 81.2783 20.1997C47.8612 20.1997 20.7712 47.2896 20.7712 80.7068C20.7712 114.124 47.8612 141.214 81.2783 141.214Z" fill="#EDA635" stroke="#BC781E" stroke-width="6.98" stroke-miterlimit="10"/>
<path d="M58.1298 50.2297C60.2181 50.2297 61.9109 48.5369 61.9109 46.4487C61.9109 44.3604 60.2181 42.6676 58.1298 42.6676C56.0416 42.6676 54.3488 44.3604 54.3488 46.4487C54.3488 48.5369 56.0416 50.2297 58.1298 50.2297Z" fill="#BE1E2D" stroke="#992836" stroke-width="2.13" stroke-miterlimit="10"/>
<path d="M40.3225 70.7946C44.669 70.7946 48.1926 67.271 48.1926 62.9244C48.1926 58.5778 44.669 55.0542 40.3225 55.0542C35.9759 55.0542 32.4523 58.5778 32.4523 62.9244C32.4523 67.271 35.9759 70.7946 40.3225 70.7946Z" fill="#BE1E2D" stroke="#992836" stroke-width="4.43" stroke-miterlimit="10"/>
<path d="M73.0056 79.579C77.4208 79.579 81 75.9998 81 71.5846C81 67.1694 77.4208 63.5902 73.0056 63.5902C68.5904 63.5902 65.0112 67.1694 65.0112 71.5846C65.0112 75.9998 68.5904 79.579 73.0056 79.579Z" fill="#BE1E2D" stroke="#992836" stroke-width="4.5" stroke-miterlimit="10"/>
<path d="M103.185 63.5903C106.129 63.5903 108.516 61.2034 108.516 58.259C108.516 55.3146 106.129 52.9277 103.185 52.9277C100.24 52.9277 97.8533 55.3146 97.8533 58.259C97.8533 61.2034 100.24 63.5903 103.185 63.5903Z" fill="#BE1E2D" stroke="#992836" stroke-width="3" stroke-miterlimit="10"/>
<path d="M90.6688 43.3135C93.6132 43.3135 96 40.9266 96 37.9823C96 35.0379 93.6132 32.651 90.6688 32.651C87.7244 32.651 85.3375 35.0379 85.3375 37.9823C85.3375 40.9266 87.7244 43.3135 90.6688 43.3135Z" fill="#BE1E2D" stroke="#992836" stroke-width="3" stroke-miterlimit="10"/>
<path d="M125.344 75.8178C129.501 75.8178 132.872 72.4477 132.872 68.2904C132.872 64.1332 129.501 60.7631 125.344 60.7631C121.187 60.7631 117.817 64.1332 117.817 68.2904C117.817 72.4477 121.187 75.8178 125.344 75.8178Z" fill="#BE1E2D" stroke="#992836" stroke-width="4.24" stroke-miterlimit="10"/>
<path d="M55.8591 110.265C59.9752 110.265 63.3119 106.928 63.3119 102.812C63.3119 98.6958 59.9752 95.359 55.8591 95.359C51.743 95.359 48.4062 98.6958 48.4062 102.812C48.4062 106.928 51.743 110.265 55.8591 110.265Z" fill="#BE1E2D" stroke="#992836" stroke-width="4.19" stroke-miterlimit="10"/>
<path d="M70.3375 127.724C73.2819 127.724 75.6687 125.337 75.6687 122.393C75.6687 119.449 73.2819 117.062 70.3375 117.062C67.3931 117.062 65.0062 119.449 65.0062 122.393C65.0062 125.337 67.3931 127.724 70.3375 127.724Z" fill="#BE1E2D" stroke="#992836" stroke-width="3" stroke-miterlimit="10"/>
<path d="M108.516 96.2782C111.46 96.2782 113.847 93.8914 113.847 90.947C113.847 88.0026 111.46 85.6157 108.516 85.6157C105.571 85.6157 103.185 88.0026 103.185 90.947C103.185 93.8914 105.571 96.2782 108.516 96.2782Z" fill="#BE1E2D" stroke="#992836" stroke-width="3" stroke-miterlimit="10"/>
<path d="M107.791 122.393C111.857 122.393 115.154 119.096 115.154 115.03C115.154 110.963 111.857 107.666 107.791 107.666C103.724 107.666 100.427 110.963 100.427 115.03C100.427 119.096 103.724 122.393 107.791 122.393Z" fill="#BE1E2D" stroke="#992836" stroke-width="4.15" stroke-miterlimit="10"/>
<path d="M91.6575 77.1046C93.9778 78.4908 95.7218 76.1407 93.5853 74.3769C92.1245 73.1695 90.1023 73.0801 88.7161 73.4825C87.8814 73.726 87.1957 74.357 86.9672 75.1967C86.4057 77.2586 89.6751 76.722 89.6751 76.722L88.9844 80.3789L90.7284 80.7068L91.6575 77.1046Z" fill="#C49A6C" stroke="#A97C50" stroke-width="2.21" stroke-miterlimit="10"/>
<path d="M82.3762 54.4579C85.894 53.4046 85.1387 49.5092 81.4123 50.026C78.8634 50.3837 76.9207 52.3264 76.0562 54.0753C75.5345 55.1336 75.5395 56.4006 76.1705 57.3993C77.7207 59.8538 80.1801 56.0926 80.1801 56.0926L83.206 60.132L85.1338 58.6861L82.3812 54.4529L82.3762 54.4579Z" fill="#C49A6C" stroke="#A97C50" stroke-width="3" stroke-miterlimit="10"/>
<path d="M73.5969 34.3453C75.7731 38.2704 80.2349 36.3575 78.6399 32.0399C77.5518 29.0885 74.7198 27.2701 72.4044 26.6937C71.0033 26.3459 69.4879 26.6788 68.4644 27.6924C65.9354 30.1866 71.0728 32.1442 71.0728 32.1442L67.0284 36.8146L69.2544 38.7424L73.5969 34.3502V34.3453Z" fill="#C49A6C" stroke="#A97C50" stroke-width="3.67" stroke-miterlimit="10"/>
<path d="M51.1341 78.5206C55.3424 77.2586 54.4431 72.5931 49.9814 73.2142C46.9307 73.6415 44.6054 75.9668 43.567 78.0635C42.9409 79.3305 42.9459 80.8509 43.7011 82.0433C45.5593 84.9798 48.5007 80.4782 48.5007 80.4782L52.1228 85.3176L54.4282 83.5886L51.1291 78.5206H51.1341Z" fill="#C49A6C" stroke="#A97C50" stroke-width="3.59" stroke-miterlimit="10"/>
<path d="M36.2384 97.0732C39.1301 99.3339 41.8777 96.4671 39.299 93.7294C37.5352 91.8562 34.8273 91.3942 32.8945 91.6973C31.7319 91.8811 30.6984 92.6214 30.2463 93.7095C29.1433 96.3925 33.6299 96.2236 33.6299 96.2236L32.0797 101.028L34.3702 101.764L36.2334 97.0683L36.2384 97.0732Z" fill="#C49A6C" stroke="#A97C50" stroke-width="3" stroke-miterlimit="10"/>
<path d="M82.2372 97.4559C86.4655 95.866 85.2183 91.1459 80.687 92.0949C77.5866 92.7457 75.3657 95.2946 74.4465 97.5205C73.895 98.862 74.0043 100.422 74.8639 101.59C76.9755 104.472 79.6784 99.6471 79.6784 99.6471L83.7327 104.357L85.9785 102.424L82.2422 97.4559H82.2372Z" fill="#C49A6C" stroke="#A97C50" stroke-width="3.69" stroke-miterlimit="10"/>
<path d="M127.928 93.1729C130.685 96.6012 134.675 94.0076 132.414 90.1023C130.869 87.4342 127.828 86.1523 125.493 85.9834C124.082 85.8791 122.676 86.4604 121.851 87.6081C119.829 90.4402 125.116 91.4687 125.116 91.4687L121.995 96.6558L124.47 98.1414L127.928 93.1679V93.1729Z" fill="#C49A6C" stroke="#A97C50" stroke-width="3.6" stroke-miterlimit="10"/>
<path d="M116.371 45.9419C119.874 44.8538 119.089 40.9634 115.367 41.5199C112.824 41.9024 110.901 43.865 110.051 45.6239C109.539 46.6872 109.554 47.9541 110.195 48.9478C111.77 51.3874 114.19 47.6014 114.19 47.6014L117.256 51.611L119.168 50.1502L116.371 45.9468V45.9419Z" fill="#C49A6C" stroke="#A97C50" stroke-width="3" stroke-miterlimit="10"/>
</svg>
