<svg width="174" height="102" viewBox="0 0 174 102" fill="none" xmlns="http://www.w3.org/2000/svg">
<path d="M49.6423 10.4385C43.9837 7.68963 38.1708 13.6174 38.1708 13.6174C33.5298 15.3527 31.2016 17.3798 31.2016 17.3798C28.1487 18.1015 29.1663 21.434 29.1663 21.434C29.1663 23.1693 26.5606 22.8775 26.5606 22.8775C23.8006 21.7258 22.783 22.294 22.783 22.294C21.4724 25.9028 22.0583 27.7917 22.0583 27.7917C21.0407 29.2352 17.9878 27.7917 17.9878 27.7917C15.6595 28.8053 15.6595 30.387 15.6595 30.387C16.9701 34.5794 15.6595 37.0365 15.6595 37.0365C14.3489 38.91 8.69028 41.0907 8.69028 41.0907L5.35984 43.1178C3.7563 41.966 2.16817 43.1178 2.16817 43.1178C-0.26798 45.2831 0.00955701 46.5731 0.00955701 46.5731C2.33778 48.3084 2.7695 51.9173 2.7695 51.9173C5.2365 55.8179 7.84225 56.4015 7.84225 56.4015C12.1903 58.275 13.3621 64.0645 13.3621 64.0645H10.1705L13.9481 69.1169C17.1397 70.9904 19.6067 70.714 19.6067 70.714C25.8513 74.7682 30.4923 76.6418 30.4923 76.6418C36.7369 78.2389 40.4991 76.6418 40.4991 76.6418C44.7084 77.6553 45.433 77.3482 45.433 77.3482C48.193 76.78 49.0564 74.1847 49.0564 74.1847C54.4221 73.3247 55.7327 75.49 55.7327 75.49L58.4927 75.6282C61.2526 78.2235 60.5279 82.1395 60.5279 82.1395C58.4927 84.7348 57.0433 85.3184 57.0433 85.3184C57.3363 87.0537 58.6469 87.3455 58.6469 87.3455C60.8209 87.0537 61.4068 88.359 61.4068 88.359C62.5632 90.3861 61.4068 92.5514 61.4068 92.5514H63.4421C64.8914 93.8568 66.3408 93.2732 66.3408 93.2732C66.4796 95.0085 67.7901 94.7167 67.7901 94.7167C68.5148 93.1196 67.7901 91.2461 67.7901 91.2461C73.0171 90.9543 76.0546 89.5108 76.0546 89.5108C79.1075 90.6625 79.5392 91.9679 79.5392 91.9679C81.8674 94.2867 84.3344 93.565 84.3344 93.565C86.9402 93.8568 87.9578 96.7438 87.9578 96.7438C89.5613 97.1738 89.9931 95.7303 89.9931 95.7303C90.4248 93.7032 93.7707 93.135 93.7707 93.135C106.244 89.2343 110.747 83.8902 110.747 83.8902C119.458 73.77 116.112 68.1341 116.112 68.1341C116.112 63.8034 112.489 59.7492 112.489 59.7492C109.59 59.0275 110.161 58.1521 110.161 58.1521C111.024 53.9597 116.744 52.9462 116.744 52.9462C119.304 52.3626 117.855 50.7809 117.855 50.7809C113.938 50.3509 112.489 50.9191 112.489 50.9191C111.471 52.3626 110.022 50.0591 110.022 50.0591C106.399 49.3373 106.537 47.3102 106.537 47.3102C109.297 45.8667 111.178 45.2831 111.178 45.2831C113.352 41.6743 115.819 41.2289 115.819 41.2289C118.872 41.6589 116.976 44.116 116.976 44.116C115.233 45.5595 115.958 46.2813 115.958 46.2813C117.562 46.7113 119.289 44.6842 119.289 44.6842C124.808 42.9489 125.379 46.2813 125.379 46.2813C123.93 48.3084 123.775 49.4602 123.775 49.4602C125.225 50.3202 126.381 50.0437 126.381 50.0437C129.28 50.4737 127.985 56.8315 127.985 56.8315C127.121 58.9968 128.278 59.5803 128.278 59.5803C129.866 60.1639 135.247 56.985 135.247 56.985C135.386 49.0302 131.038 46.8649 131.038 46.8649C128.709 42.9642 133.366 43.1025 133.366 43.1025C136.85 40.2154 138.161 36.4529 138.161 36.4529C139.903 32.8441 138.886 29.6652 138.886 29.6652C140.767 27.0699 143.095 28.6517 143.095 28.6517C145.701 28.0681 147.736 18.6851 147.736 18.6851C147.15 16.8116 142.509 19.6987 142.509 19.6987C139.61 21.004 138.439 18.1015 138.439 18.1015C136.265 13.3256 131.624 13.6174 131.624 13.6174C130.174 10.5767 128.725 6.96785 128.725 6.96785C125.256 -0.971622 119.458 0.041928 119.458 0.041928C111.918 0.90191 112.489 2.36081 112.489 2.36081C116.837 5.10968 109.159 12.3274 109.159 12.3274C107.123 14.2009 102.482 12.0356 102.482 12.0356C97.1165 11.452 96.2376 12.1738 96.2376 12.1738C91.4424 15.4909 84.1956 14.3391 84.1956 14.3391C82.4533 10.4385 75.6383 10.7303 75.6383 10.7303C70.4113 11.7438 68.669 6.96785 68.669 6.96785C62.2857 4.94075 59.9575 5.09432 59.9575 5.09432C55.6094 7.84319 59.6645 10.5921 59.6645 10.5921C60.0962 13.4791 56.3341 12.9109 56.3341 12.9109C50.9683 13.0492 49.6578 10.4539 49.6578 10.4539L49.6423 10.4385Z" fill="#588157"/>
<path d="M90.3015 97.8494C86.8168 97.2659 85.3058 99.1855 85.3058 99.1855C84.3807 100.921 85.3058 101.612 85.3058 101.612C86.8785 102.487 88.3895 101.612 88.3895 101.612C89.4997 100.921 89.6693 99.2315 89.6693 99.2315C90.6561 98.6019 90.3015 97.8494 90.3015 97.8494Z" fill="#588157"/>
<path d="M116.637 84.4277C115.064 83.5063 113.383 86.808 113.383 86.808C112.227 89.9869 113.383 91.4919 113.383 91.4919C113.907 92.8279 114.262 92.7665 114.262 92.7665C114.848 92.3672 114.385 90.509 114.385 90.509C115.496 89.6951 116.128 88.1901 116.128 88.1901C116.359 86.5162 116.652 85.9941 116.652 85.9941C117.007 85.1188 116.652 84.4277 116.652 84.4277H116.637Z" fill="#588157"/>
<path d="M165.637 27.2849C167.21 30.2334 169.816 31.6309 169.816 31.6309C171.681 32.4448 172.082 32.153 172.082 32.153L173.994 30.6481L172.946 32.1991C172.884 33.5351 173.701 34.1187 173.701 34.1187C173.47 35.1015 171.142 34.994 171.142 34.994C168.413 35.7465 168.875 37.7122 168.875 37.7122C168.52 38.3418 167.765 37.7122 167.765 37.7122C165.961 36.7908 165.267 36.2072 165.267 36.2072C163.879 36.1458 163.294 36.7908 163.294 36.7908C162.708 36.1612 162.245 36.1612 162.245 36.1612C161.551 36.9751 161.613 37.3743 161.613 37.3743C163.355 38.1883 163.355 38.5875 163.355 38.5875H162.075C161.382 39.5089 161.027 39.4629 161.027 39.4629C160.626 38.5875 161.027 38.1268 161.027 38.1268L160.333 36.4529C161.613 35.9308 161.721 34.8251 161.721 34.8251C161.659 34.1955 162.183 34.0726 162.183 34.0726C163.109 34.8251 163.987 34.303 163.987 34.303L164.45 32.6291C166.131 30.3716 164.573 28.2831 164.573 28.2831C164.45 27.1313 165.622 27.3003 165.622 27.3003L165.637 27.2849Z" fill="#588157"/>
<path d="M163.602 41.1828C161.86 40.9525 160.811 42.0582 160.811 42.0582C160.518 44.1467 160.811 44.8377 160.811 44.8377C160.58 46.8648 159.778 48.4159 159.778 48.4159C159.47 49.7519 158.899 49.9362 158.899 49.9362C158.02 49.9976 157.743 50.8576 157.743 50.8576C157.28 52.0094 154.952 52.7619 154.952 52.7619C154.197 53.0536 153.21 52.4701 153.21 52.4701C152.516 52.9308 152.454 53.6218 152.454 53.6218C151.529 54.4972 151.067 55.1882 151.067 55.1882L151.19 55.9407C150.789 57.2153 149.324 56.5243 149.324 56.5243C149.155 55.6029 148.445 56.0022 148.445 56.0022C146.179 56.5857 144.375 56.7086 144.375 56.7086C143.157 56.6318 142.34 57.5685 142.34 57.5685C140.428 59.5956 138.685 59.6571 138.685 59.6571C138.747 60.7013 139.148 60.7013 139.148 60.7013C140.721 60.3021 141.353 61.0545 141.353 61.0545C141.985 60.1792 141.985 59.9028 141.985 59.9028C142.864 59.4421 143.666 59.8414 143.666 59.8414C146.456 59.6724 147.042 58.6282 147.042 58.6282C149.185 58.4592 149.54 59.0889 149.54 59.0889C149.663 59.8414 148.954 60.0103 148.954 60.0103C148.6 60.9931 149.833 61.807 149.833 61.807C151.282 61.9299 151.144 60.6553 151.144 60.6553C152.793 60.0256 153.148 59.9028 153.148 59.9028L152.269 58.9814C152.269 57.6453 153.719 58.06 153.719 58.06C154.536 58.8739 156.155 59.0428 156.155 59.0428C157.08 57.9371 157.265 57.5993 157.265 57.5993C158.19 57.7221 159.069 57.1386 159.069 57.1386C160.287 56.3861 160.41 55.9254 160.41 55.9254C161.289 56.0943 160.642 57.0771 160.642 57.0771C160.117 57.891 160.642 58.2289 160.642 58.2289C161.752 57.7068 162.276 55.8486 162.276 55.8486C161.983 54.574 162.045 54.1133 162.045 54.1133C162.738 52.3165 163.324 51.5026 163.324 51.5026L163.155 49.5984C163.093 48.1548 164.08 48.4312 164.08 48.4312C164.666 47.2795 165.236 46.0049 165.236 46.0049C165.591 43.9163 163.602 41.1982 163.602 41.1982V41.1828Z" fill="#588157"/>
<path d="M147.505 60.0564C146.225 59.7032 145.238 60.0564 145.238 60.0564C145.238 60.8703 144.359 61.1007 144.359 61.1007C143.773 60.64 143.373 60.7475 143.373 60.7475C143.203 61.8531 142.555 61.7917 142.555 61.7917C142.155 63.1738 143.08 63.9263 143.08 63.9263C143.712 63.9263 144.128 62.7131 144.128 62.7131C145.177 61.7303 145.87 61.9146 145.87 61.9146L146.225 62.7131C146.857 62.5442 147.042 61.5614 147.042 61.5614L147.921 61.2696C148.044 60.2867 147.52 60.0564 147.52 60.0564H147.505Z" fill="#588157"/>
<path d="M138.146 60.9164C137.513 61.7917 136.511 62.2524 136.511 62.2524C135.879 62.6517 136.049 63.5885 136.049 63.5885L136.928 64.1106C136.928 62.836 137.514 62.8053 137.514 62.8053C138.146 63.481 137.914 64.6788 137.914 64.6788C137.514 65.7384 137.097 65.9073 137.097 65.9073C136.82 66.9516 137.575 67.9959 137.575 67.9959C138.269 67.6427 138.161 66.4909 138.161 66.4909C139.21 66.322 138.284 67.6427 138.284 67.6427L139.163 67.9959C139.919 67.2434 140.042 65.7999 140.042 65.7999C140.166 64.4638 141.091 63.9417 141.091 63.9417C141.723 62.8974 139.749 61.8071 139.749 61.8071C139.287 61.2849 138.177 60.9317 138.177 60.9317L138.146 60.9164Z" fill="#588157"/>
</svg>
