<svg width="188" height="183" viewBox="0 0 188 183" fill="none" xmlns="http://www.w3.org/2000/svg">
<path d="M84.5626 40.338C86.5223 36.5657 89.2544 33.565 89.2544 33.565C90.6848 31.2216 89.2544 30.3071 89.2544 30.3071C90.4274 26.0061 94.1178 24.0628 94.1178 24.0628C97.5938 21.5908 96.4208 18.0757 96.4208 18.0757C94.9904 11.9599 108.279 5.45842 108.279 5.45842C110.754 2.72921 112.842 1.81471 112.842 1.81471C114.401 3.32935 121.053 0 121.053 0C124.185 2.72921 123.785 6.60155 123.785 6.60155C119.751 10.2738 122.741 14.7034 122.741 14.7034C125.344 15.4893 125.086 17.5613 125.086 17.5613C123.127 23.1626 127.947 24.5915 127.947 24.5915C130.551 27.4493 129.12 30.1928 129.12 30.1928C131.08 33.3221 131.852 33.4507 131.852 33.4507C131.466 35.7941 131.852 37.223 131.852 37.223C138.232 39.695 136.158 43.4673 136.158 43.4673C133.426 46.4537 132.897 49.7116 132.897 49.7116C130.937 53.6126 121.568 57.9136 121.568 57.9136C120.781 59.4711 117.791 58.8281 117.791 58.8281C115.445 56.6133 114.015 56.8705 114.015 56.8705C112.456 53.7412 113.228 52.9695 113.228 52.9695C114.144 51.7978 112.57 49.7116 112.57 49.7116C110.096 46.3251 112.055 44.7676 112.055 44.7676C114.659 40.4666 114.272 39.1663 114.272 39.1663C115.703 37.2087 116.618 33.9651 116.618 33.9651C119.093 32.922 119.222 31.4931 119.222 31.4931C118.177 27.4636 116.876 28.2352 116.876 28.2352C111.412 27.8494 110.525 30.45 110.525 30.45C109.709 32.4076 110.525 34.0937 110.525 34.0937C109.581 39.4235 107.621 41.1239 107.621 41.1239C106.706 43.2101 103.587 45.1534 103.587 45.1534C102.028 50.226 102.8 56.599 102.8 56.599C104.36 58.4137 105.661 58.1565 105.661 58.1565C107.22 58.4137 106.577 61.2858 106.577 61.2858C105.919 66.1012 102.8 67.6587 102.8 67.6587C100.984 69.8735 102.286 73.1171 102.286 73.1171C102.8 78.1897 101.499 81.0475 101.499 81.0475C100.583 82.7337 98.5092 81.0475 98.5092 81.0475C95.5197 82.2193 95.6484 83.9054 95.6484 83.9054C97.0788 85.7201 95.7771 86.1202 95.7771 86.1202H91.9293C90.3129 83.9054 90.3129 78.5755 90.3129 78.5755C89.5262 73.7601 88.0958 74.1459 88.0958 74.1459C87.8383 71.4167 85.6211 66.9871 85.6211 66.9871C84.9632 62.9576 83.6615 62.0431 83.6615 62.0431V63.7292C83.2753 66.4584 81.9736 67.3729 81.9736 67.3729C78.841 70.2307 76.8956 72.0597 76.8956 72.0597L75.2077 72.1883C73.906 68.416 71.0452 68.416 71.0452 68.416C70.7877 65.2867 72.2181 66.2012 72.2181 66.2012C73.7773 65.1581 71.0166 63.3434 71.0166 63.3434C71.3027 56.7133 71.9606 50.9834 71.9606 50.9834C74.3065 48.64 75.0933 46.6824 75.0933 46.6824C77.0529 43.9531 78.6121 45.7679 78.6121 45.7679C79.6563 42.2527 81.3442 43.0387 81.3442 43.0387C84.3338 44.9963 85.1205 43.6959 85.1205 43.6959L84.6056 40.3094L84.5626 40.338Z" fill="#588157"/>
<path d="M40.3484 66.4156C39.5473 63.8579 41.9647 63.1863 41.9647 63.1863C43.7099 64.4008 46.4133 63.9865 46.4133 63.9865C47.7579 65.7297 43.295 67.8874 43.295 67.8874C42.7658 71.2453 45.1975 70.3022 45.1975 70.3022C49.9036 69.9021 48.702 71.7883 48.702 71.7883C46.1416 75.2891 45.0687 76.3608 45.0687 76.3608C44.5252 78.1041 43.3236 78.647 43.3236 78.647C47.0999 79.5901 47.3574 82.8194 47.3574 82.8194C46.2846 87.2633 48.8451 87.3919 48.8451 87.3919C50.4614 89.2781 49.5174 91.5644 49.5174 91.5644C49.9179 93.5791 51.005 93.5791 51.005 93.5791C52.2208 94.7937 51.005 96.6656 51.005 96.6656C55.4536 95.5939 54.5095 99.6234 54.5095 99.6234C54.5095 102.038 52.0921 102.981 52.0921 102.981C49.6747 104.053 51.9634 104.725 51.9634 104.725C52.3639 106.468 50.347 107.682 50.347 107.682C48.8594 106.882 47.4146 107.682 47.4146 107.682C45.3691 106.739 43.3522 106.068 43.3522 106.068C40.2625 107.682 38.1026 105.796 38.1026 105.796C35.2704 106.468 34.8699 107.682 34.8699 107.682C31.2366 107.811 29.0767 107.682 29.0767 107.682L32.7099 104.053L36.615 103.653C40.7918 103.11 38.7749 101.495 38.7749 101.495C36.615 103.653 35.9427 100.152 35.9427 100.152H33.1104C31.3653 97.9944 33.511 97.9944 33.511 97.9944C36.8724 97.1942 35.3991 92.8789 35.3991 92.8789C36.3432 90.1926 38.3601 92.2074 38.3601 92.2074C41.1923 93.0075 41.836 88.1778 41.836 88.1778C39.1754 86.4346 40.52 85.4486 40.52 85.4486C42.9374 83.2052 39.3042 83.6053 39.3042 83.6053C37.0155 85.22 36.0714 82.8052 36.0714 82.8052C36.8724 79.9759 38.9036 80.2474 38.9036 80.2474C39.9765 76.4751 37.2873 77.161 37.2873 77.161C36.615 79.8473 35.1273 79.7187 35.1273 79.7187C35.3991 76.8895 36.4719 74.6032 36.4719 74.6032C38.3601 73.803 36.0714 71.9169 36.0714 71.9169C36.2001 70.0307 38.6319 69.6306 38.6319 69.6306L37.6878 66.6728C39.0324 65.8726 40.377 66.4013 40.377 66.4013L40.3484 66.4156Z" fill="#588157"/>
<path d="M30.9648 78.104C30.5214 77.8896 29.9921 78.1754 29.9206 78.6755C29.5916 80.6331 28.2184 80.8332 28.2184 80.8332C26.9024 80.676 28.2184 79.3186 28.2184 79.3186C27.4603 78.6184 26.5019 79.9759 26.5019 79.9759C26.7594 82.0906 25.7438 82.0478 25.7438 82.0478C24.7854 82.3478 24.6853 83.1052 24.6853 83.1052C24.0273 84.0197 22.2678 82.0478 22.2678 82.0478C21.9675 80.7332 20.4512 81.3476 20.4512 81.3476C19.4928 82.7622 20.8088 82.605 20.8088 82.605C22.2678 83.6624 21.0091 84.2197 21.0091 84.2197C19.4928 84.6198 19.4928 86.4917 19.4928 86.4917C19.4928 87.8063 20.3511 87.2918 20.3511 87.2918C22.3251 87.2918 21.5669 88.6064 21.5669 88.6064C19.8504 88.9065 20.208 89.821 20.208 89.821C18.091 90.7355 18.8491 91.2356 18.8491 91.2356C20.7659 90.7355 21.1664 91.2356 21.1664 91.2356C21.6671 92.3502 19.5071 92.293 19.5071 92.293C16.6749 92.2359 16.9324 93.6505 16.9324 93.6505C15.7165 94.2506 16.4746 94.8079 16.4746 94.8079C17.8908 97.68 20.4083 96.5226 20.4083 96.5226C22.182 94.7079 23.1118 95.3652 23.1118 95.3652C24.5422 97.0799 25.7009 95.7224 25.7009 95.7224C26.9596 95.3223 28.3757 95.5652 28.3757 95.5652C30.0922 95.6652 29.3913 94.2506 29.3913 94.2506C29.892 92.8932 30.4069 92.5931 30.4069 92.5931C30.879 92.1787 30.8647 91.4214 30.7359 90.7927C30.5643 89.9782 30.6787 89.1351 31.0506 88.4064C32.1807 86.2059 32.7385 86.2773 32.7385 86.2773C34.5122 85.4771 34.0545 81.9906 34.0545 81.9906C33.7541 80.2188 32.6956 80.2188 32.6956 80.2188C32.3952 79.0185 31.6371 78.4041 31.0077 78.104H30.9648Z" fill="#588157"/>
<path d="M84.9779 75.3605C82.2887 74.2174 81.4734 76.375 81.4734 76.375C79.2562 77.9182 77.9117 77.9897 77.9117 77.9897C75.4227 79.8758 76.6958 81.6905 76.6958 81.6905C80.4721 86.1916 79.7855 89.8925 79.7855 89.8925C77.5683 94.122 75.8089 94.2649 75.8089 94.2649C71.9039 95.3366 71.6035 96.8084 71.3603 96.9513C69.3434 98.1658 68.9429 96.2082 68.9429 96.2082C66.2537 95.7367 66.783 98.8946 66.783 98.8946C66.5827 101.924 66.1107 101.581 66.1107 101.581C64.6231 101.581 65.0951 100.166 65.0951 100.166C64.7518 97.6086 63.5502 101.595 63.5502 101.595C62.3344 104.81 60.6608 106.296 60.6608 106.296C57.6283 107.168 55.7402 106.839 55.7402 106.839C51.7636 107.511 52.1784 111.212 52.1784 111.212C46.5855 115.513 42.7519 115.713 42.7519 115.713C41.6791 114.498 42.7519 111.812 42.7519 111.812C41.4789 110.069 41.0068 111.94 41.0068 111.94C39.934 114.57 40.3345 117.999 40.3345 117.999C38.2461 120.085 37.0303 117.999 37.0303 117.999C34.6129 117.327 34.9419 115.513 34.9419 115.513C32.1096 114.77 31.2371 115.984 31.2371 115.984C29.2917 121.028 32.925 121.5 32.925 121.5C37.0303 125.001 36.7013 127.687 36.7013 127.687C36.029 131.188 38.6466 131.788 38.6466 131.788C40.5348 135.017 38.1746 141.605 38.1746 141.605C35.0849 145.163 29.492 144.291 29.492 144.291C26.4595 144.362 22.4257 142.205 22.4257 142.205C20.7378 140.119 16.7755 140.119 16.7755 140.119C14.2866 140.319 13.2138 138.975 13.2138 138.975C10.9966 137.089 9.43748 139.576 9.43748 139.576C7.22033 140.047 6.34778 139.104 6.34778 139.104C4.13063 138.761 5.87574 141.662 5.87574 141.662C7.42059 147.249 4.86014 155.308 4.86014 155.308C2.97199 159.209 1.42713 160.009 1.42713 160.009C-0.46102 161.424 1.77043 163.31 1.77043 163.31C3.38681 166.739 0.969399 167.954 0.969399 167.954C-0.775712 170.84 0.368623 172.326 0.368623 172.326C2.45704 173.198 3.40111 172.669 3.40111 172.669C8.32175 173.741 8.72227 178.113 8.72227 178.113C9.99534 181.543 12.284 180.671 12.284 180.671C14.0291 179.871 16.0603 179.728 16.0603 179.728C18.0057 178.785 19.4933 177.913 19.4933 177.913C21.4387 177.513 25.1435 179.856 25.1435 179.856C27.9757 180.657 28.9198 179.585 28.9198 179.585C31.0082 175.955 32.0095 176.084 32.0095 176.084C33.7546 175.684 33.9549 173.869 33.9549 173.869C35.4425 172.255 36.9874 172.526 36.9874 172.526C38.804 170.511 38.2032 168.625 38.2032 168.625C38.2032 163.581 43.8534 160.352 43.8534 160.352C51.3202 159.137 52.9365 155.779 52.9365 155.779C53.2798 152.621 54.5529 148.378 54.5529 148.378C58.5295 146.291 60.0743 146.691 60.0743 146.691C62.0197 150.392 64.9234 150.049 64.9234 150.049C67.3409 148.978 67.4124 148.506 67.4124 148.506C70.5021 149.378 73.6061 145.82 73.6061 145.82C77.9116 143.934 82.16 146.291 82.16 146.291C86.5371 150.592 91.9155 160.609 91.9155 160.609C93.7321 163.495 97.9089 164.91 97.9089 164.91C100.198 168.339 102.014 168.211 102.014 168.211C105.919 170.097 105.991 175.341 105.991 175.341C105.791 176.956 104.575 177.284 104.575 177.284C103.902 178.828 105.247 178.77 105.247 178.77C108.279 178.027 108.337 176.827 108.337 176.827C108.136 173.869 110.025 173.598 110.025 173.598C111.169 172.183 110.497 170.84 110.497 170.84C107.664 169.225 107.607 167.811 107.607 167.811C108.079 166.125 111.841 166.596 111.841 166.596C113.529 168.211 114.33 167.668 114.33 167.668C115.603 164.981 112.842 163.967 112.842 163.967C107.121 161.752 104.56 159.595 104.56 159.595C106.048 157.908 104.16 157.18 104.16 157.18C99.8543 156.837 98.9102 155.436 98.9102 155.436C95.6775 152.479 95.6775 150.192 95.6775 150.192C92.1157 145.748 90.4993 144.477 90.4993 144.477C89.0832 139.361 91.9155 138.89 91.9155 138.89C91.9155 138.89 90.9714 138.69 92.5162 138.547C94.0611 138.404 94.9336 142.176 94.9336 142.176C95.7347 143.919 96.4785 142.305 96.4785 142.305C97.6943 139.418 99.3679 141.29 99.3679 141.29C100.04 145.52 100.584 147.677 100.584 147.677C102 148.749 102.601 148.349 102.601 148.349C107.779 149.964 116.733 156.622 116.733 156.622C118.822 160.052 117.949 165.424 117.949 165.424C117.949 168.254 119.637 168.725 119.637 168.725C124.086 168.797 125.63 171.283 125.63 171.283C125.502 174.041 127.848 174.312 127.848 174.312C132.082 173.298 133.169 174.184 133.169 174.184C133.913 176.07 131.624 176.341 131.624 176.341C127.991 176.413 128.062 177.141 128.062 177.141C128.191 179.156 129.879 178.685 129.879 178.685C131.767 179.285 131.023 181.171 131.023 181.171C130.823 183.457 131.824 182.914 131.824 182.914C133.097 180.499 134.113 181.971 134.113 181.971C135.457 181.171 135.529 180.628 135.529 180.628C134.041 178.942 135.529 178.142 135.529 178.142C137.346 178.142 135.529 176.327 135.529 176.327C136.273 173.569 138.161 173.698 138.161 173.698C138.833 171.34 135.2 171.955 135.2 171.955C133.383 169.268 135.2 168.325 135.2 168.325C134.056 166.439 132.783 165.496 132.783 165.496C131.767 161.524 132.983 161.866 132.983 161.866C134.327 164.696 135.944 163.281 135.944 163.281C137.288 162.267 137.36 160.123 137.36 160.123C138.576 157.437 141.866 158.909 141.866 158.909C144.026 157.165 145.699 157.694 145.699 157.694C147.387 155.608 147.387 154.393 147.387 154.393C146.915 153.05 145.37 152.45 145.37 152.45C145.241 151.035 148.803 150.707 149.003 150.764C149.204 150.821 146.643 150.164 149.204 150.835C151.764 151.507 151.964 150.764 151.964 150.764C152.508 148.949 150.548 146.32 150.548 146.32C150.005 143.162 152.05 142.619 152.05 142.619C153.238 139.39 152.05 134.546 152.05 134.546C153.767 134.417 153.91 133.474 153.91 133.474C153.838 130.516 155.397 128.959 155.397 128.959C157.286 125.329 158.702 124.329 158.702 124.329C162.135 124.872 166.24 124.729 166.24 124.729C167.256 125.801 165.639 127.616 165.639 127.616C165.367 129.559 171.704 132.317 171.704 132.317C173.793 132.188 178.699 125.058 178.699 125.058C176.811 123.715 174.393 125.258 174.393 125.258C171.561 125.258 169.273 123.172 169.273 123.172C169.201 120.885 179.772 115.298 179.772 115.298C183.477 112.669 185.422 115.027 185.422 115.027C186.967 115.37 187.782 108.64 187.782 108.64C188.798 104.139 186.237 101.309 186.237 101.309C184.621 99.0232 182.876 100.509 182.876 100.509C179.443 101.109 176.611 98.4945 176.611 98.4945C172.377 97.0799 168.4 99.0946 168.4 99.0946C165.096 99.2947 162.55 95.3938 162.55 95.3938C159.589 91.2928 156.699 92.7646 156.699 92.7646C152.594 94.0363 151.378 92.6931 151.378 92.6931C149.218 89.0637 151.721 87.3776 151.721 87.3776C151.85 84.7484 148.417 84.0197 148.417 84.0197C145.585 81.7334 146.4 78.5755 146.4 78.5755C143.768 74.9461 139.606 76.6322 139.606 76.6322C137.446 77.9039 135.901 76.9037 135.901 76.9037C135.558 73.1314 134.084 70.9166 134.084 70.9166C132.94 66.2727 130.308 64.4579 130.308 64.4579C129.507 62.1717 131.581 60.4284 131.581 60.4284C130.236 59.4853 123.842 62.3146 123.842 62.3146C122.827 62.7147 121.21 61.9145 121.21 61.9145C120.066 62.9862 119.794 66.0869 119.794 66.0869C120.195 68.1017 121.539 68.4446 121.539 68.4446C123.757 71.1309 122.884 74.2317 122.884 74.2317C121.396 75.5034 119.995 73.7601 119.995 73.7601C117.634 71.7454 116.161 75.0318 116.161 75.0318C113.872 80.0759 114.144 81.219 114.144 81.219C116.032 84.8484 114.273 87.6062 114.273 87.6062C111.855 90.6355 109.896 89.8925 109.896 89.8925C109.095 87.0632 107.135 87.9492 107.135 87.9492C99.5253 89.8925 96.0923 94.3364 96.0923 94.3364C96.2925 96.6226 94.8764 95.6795 94.8764 95.6795C92.5162 91.9072 91.9155 92.1216 91.9155 92.1216C88.2107 92.193 88.3537 93.4647 88.3537 93.4647C87.2094 94.4078 83.1756 91.2499 83.1756 91.2499C81.9597 87.5491 82.9038 87.149 82.9038 87.149C86.3368 88.6922 87.8817 87.6205 87.8817 87.6205C89.2978 85.9344 89.026 82.5765 89.026 82.5765C87.8102 82.1049 86.6086 83.791 86.394 83.9196C84.7061 85.0628 83.3615 83.7196 83.3615 83.7196C83.5618 81.9763 84.5774 81.7048 84.5774 81.7048C84.9207 80.3617 83.3615 80.2188 83.3615 80.2188C82.818 78.6041 84.2341 77.3324 84.2341 77.3324C85.45 75.9892 84.9779 75.3176 84.9779 75.3176V75.3605Z" fill="#588157"/>
<path d="M17.619 9.15932C17.8765 12.1314 17.0611 12.2886 17.0611 12.2886C16.2601 11.6885 16.2601 10.0167 16.2601 10.0167C15.1444 8.95927 14.5436 9.61657 14.5436 9.61657C12.7699 11.2312 13.8856 12.0886 13.8856 12.0886C16.5176 12.2886 16.2601 14.6606 16.2601 14.6606C15.2016 14.7178 14.844 15.818 14.844 15.818C14.0859 16.2753 13.5423 14.8607 13.5423 14.8607C11.1106 14.7035 12.1262 15.3608 12.1262 15.3608C14.2003 17.5327 13.4851 19.6475 13.4851 19.6475C13.6424 21.0049 12.4695 20.3048 12.4695 20.3048C10.9532 20.6049 12.5696 21.8194 12.5696 21.8194C15.1444 23.5913 16.4031 25.9061 16.4031 25.9061C17.9194 27.9209 22.2536 27.2636 22.2536 27.2636C25.1287 27.4636 25.5864 25.949 25.5864 25.949C27.2028 24.7915 27.9037 25.8918 27.9037 25.8918C28.6046 26.4491 29.2197 25.3917 29.2197 25.3917C32.4954 25.3917 32.3523 24.1771 32.3523 24.1771C31.5942 22.1052 32.3523 21.0049 32.3523 21.0049C33.3679 20.1476 31.9947 19.2331 31.9947 19.2331C31.5942 17.8756 32.3523 17.4184 32.3523 17.4184C32.9102 16.2038 30.5357 16.361 30.5357 16.361C30.9934 14.4891 29.5773 14.8464 29.5773 14.8464C28.2184 16.5611 27.7607 15.3036 27.7607 15.3036C27.0598 14.3891 25.286 15.9609 25.286 15.9609C24.485 16.261 24.6853 14.7035 24.6853 14.7035C24.5279 12.8316 23.4694 14.3462 23.4694 14.3462C23.0117 16.0038 22.2679 14.4034 22.2679 14.4034C21.9532 12.0886 21.2952 13.446 21.2952 13.446C21.1378 15.6608 19.7789 14.7035 19.7789 14.7035C17.805 15.2607 18.2198 15.818 18.2198 15.818C16.7035 16.4182 17.5618 14.1033 17.5618 14.1033C19.4785 11.6885 18.5774 9.87377 18.5774 9.87377C18.4773 8.21624 17.619 9.17361 17.619 9.17361V9.15932Z" fill="#588157"/>
</svg>
