<svg width="145" height="130" viewBox="0 0 145 130" fill="none" xmlns="http://www.w3.org/2000/svg">
<path d="M24.4426 54.8809C34.448 68.9834 36.9481 91.2594 36.9481 91.2594C46.8543 100.122 54.297 90.8053 54.297 90.8053C55.2052 72.3916 61.9485 59.8549 61.9485 59.8549C56.0403 54.8965 56.891 56.7128 56.891 56.7128C55.7115 60.9666 54.4901 64.2025 53.4567 66.546C52.0945 69.641 47.6581 69.6671 46.3167 66.5617C44.3021 61.8852 45.7843 56.4832 45.7843 56.4832L41.0296 54.8809C41.4628 60.2515 41.3479 64.1347 41.0348 66.8905C40.7895 69.0513 37.8354 69.4792 36.9794 67.4802C34.0566 60.6534 32.6056 54.8809 32.6056 54.8809H24.427H24.4426Z" fill="#409140" stroke="#2B5916" stroke-width="1.38" stroke-miterlimit="10"/>
<path d="M11.0864 28.9097C10.6585 21.4722 19.4373 22.7092 20.335 27.4901C22.5689 23.0954 28.2318 20.6424 29.7611 25.5433C35.591 22.3491 38.5295 22.9806 39.1924 27.297C42.35 24.5203 46.87 27.4327 46.2541 31.1175C50.179 30.8931 52.7782 36.4673 50.466 39.4997C56.4578 39.1552 54.4797 48.0646 51.0089 48.9466C54.7772 51.2796 50.8053 56.2745 47.8303 54.9906C48.8794 58.8685 39.0306 60.5961 38.9627 55.7682C34.0983 60.3404 30.1108 56.8382 31.2747 51.7964C26.9583 59.6357 22.0052 56.4729 21.3319 51.9529C18.6074 58.7015 13.2994 56.4415 13.4038 51.1022C9.7242 59.2078 1.76477 50.5855 6.70744 46.3631C-0.897077 43.8996 -0.42734 37.6521 5.31389 36.4934C0.992309 26.1957 11.0969 28.9045 11.0969 28.9045L11.0864 28.9097Z" fill="#256B25" stroke="#2B5916" stroke-width="1.2" stroke-miterlimit="10"/>
<path d="M26.5512 7.61488C26.0815 -0.615961 34.8656 0.808908 35.7946 6.10128C38.0024 1.25255 43.6549 -1.42495 45.2102 4.00834C51.0193 0.506189 53.963 1.22645 54.6519 6.00733C57.794 2.95926 62.3348 6.20044 61.7397 10.2767C65.6647 10.0523 68.3004 16.2372 66.0039 19.5775C71.9957 19.233 70.075 29.0766 66.6041 30.0318C70.3881 32.631 66.4476 38.1373 63.4621 36.702C64.5373 40.9975 54.6937 42.8451 54.5945 37.511C49.7562 42.5372 45.7478 38.6384 46.8752 33.0694C42.6058 41.7126 37.6318 38.1895 36.9324 33.179C34.2497 40.6269 28.9208 38.0956 28.9991 32.1926C25.3664 41.1384 17.3548 31.5506 22.2714 26.9106C14.6512 24.134 15.0844 17.2288 20.8152 15.9814C16.431 4.5668 26.5564 7.62531 26.5564 7.62531L26.5512 7.61488Z" fill="#256B25" stroke="#2B5916" stroke-width="1.26" stroke-miterlimit="10"/>
<path d="M47.0213 21.4774C46.5933 14.0399 55.3722 15.2768 56.2699 20.0577C58.5038 15.6631 64.1667 13.21 65.696 18.1109C71.5259 14.9167 74.4644 15.5482 75.1272 19.8646C78.2849 17.0879 82.8048 20.0003 82.1889 23.6851C86.1139 23.4607 88.7131 29.0349 86.4009 32.0673C92.3927 31.7228 90.4146 40.6322 86.9437 41.5143C90.7121 43.8473 86.7402 48.8421 83.7652 47.5582C84.8143 51.4361 74.9654 53.1637 74.8976 48.3359C70.0332 52.908 66.0457 49.4058 67.2096 44.364C62.8932 52.2034 57.9401 49.0405 57.2668 44.5206C54.5423 51.2691 49.2343 49.0092 49.3387 43.6698C45.6591 51.7754 37.6996 43.1531 42.6423 38.9307C35.0378 36.4672 35.5075 30.2197 41.2488 29.061C36.9272 18.7633 47.0317 21.4721 47.0317 21.4721L47.0213 21.4774Z" fill="#256B25" stroke="#2B5916" stroke-width="1.2" stroke-miterlimit="10"/>
<path d="M29.9177 28.1946C29.4062 19.2853 39.0932 20.8198 40.1057 26.5453C42.5484 21.2947 48.7802 18.3928 50.4869 24.2697C56.8962 20.4753 60.1426 21.253 60.8942 26.4201C64.3598 23.1163 69.3599 26.6236 68.7023 31.0339C73.0291 30.7834 75.931 37.4745 73.3944 41.0967C80.0021 40.7157 77.8674 51.3735 74.0416 52.407C78.2119 55.2149 73.859 61.1754 70.5708 59.6253C71.7504 64.2757 60.8942 66.2851 60.7951 60.5073C55.4557 65.951 51.035 61.7391 52.2928 55.7056C47.5746 65.0638 42.0995 61.2537 41.3271 55.836C38.3625 63.8999 32.4908 61.1649 32.5795 54.7765C28.5659 64.4583 19.74 54.0928 25.1681 49.0666C16.7703 46.0707 17.2557 38.5967 23.5762 37.2449C18.7536 24.896 29.9125 28.1946 29.9125 28.1946H29.9177Z" fill="#256B25" stroke="#2B5916" stroke-width="1.38" stroke-miterlimit="10"/>
<path d="M98.6089 49.7765C104.011 42.5112 95.4877 29.0298 95.4877 29.0298C103.88 33.7845 103.191 41.3055 103.191 41.3055C107.069 21.0442 101.568 19.207 101.568 19.207C109.961 24.7447 105.196 42.5895 105.196 42.5895C119.382 28.0485 124.596 29.797 124.596 29.797C112.372 40.3609 107.597 46.4987 107.597 46.4987C125.504 48.576 125.509 52.4748 125.509 52.4748C111.229 48.6909 103.927 50.789 103.927 50.789C115.337 52.3287 116.135 58.3309 116.135 58.3309C110.78 54.1555 102.356 53.4091 102.356 53.4091L98.6037 49.7713L98.6089 49.7765Z" fill="#256B25" stroke="#2B5916" stroke-width="1.38" stroke-miterlimit="10"/>
<path d="M86.855 50.1471C60.1896 71.5671 39.516 99.1981 36.2069 103.728C35.9407 104.089 35.7215 104.475 35.5754 104.898C33.7486 110.185 28.4876 111.49 25.0428 111.751C22.7829 111.923 20.7891 113.337 19.8966 115.425C18.1795 119.439 18.8319 121.458 18.8319 121.458C20.1523 119.365 21.4206 117.93 22.4958 116.959C23.8476 115.733 25.5961 115.039 27.4228 114.95C33.7747 114.637 36.614 111.625 37.8614 109.376C38.8635 107.565 40.445 106.155 42.3031 105.253C63.7439 94.7774 90.9208 74.1298 100.263 66.828C102.795 64.8499 104.246 61.7392 103.964 58.5398C103.411 52.2557 99.2456 49.5887 95.6182 48.4613C92.6119 47.5271 89.3289 48.1742 86.8707 50.1471H86.855Z" fill="#E28413" stroke="#8C501F" stroke-width="2.68" stroke-linejoin="round"/>
<path d="M50.132 86.322C56.6875 87.0266 56.8858 92.2668 56.8858 92.2668L50.132 86.322Z" fill="#E28413"/>
<path d="M50.132 86.322C56.6875 87.0266 56.8858 92.2668 56.8858 92.2668" stroke="#8C501F" stroke-width="2.68" stroke-miterlimit="10" stroke-linecap="round"/>
<path d="M59.9339 75.3823C66.2492 76.2539 70.1272 81.348 70.1115 84.0464L59.9339 75.3823Z" fill="#E28413"/>
<path d="M59.9339 75.3823C66.2492 76.2539 70.1272 81.348 70.1115 84.0464" stroke="#8C501F" stroke-width="2.68" stroke-miterlimit="10" stroke-linecap="round"/>
<path d="M68.838 66.2539C78.9217 65.972 81.9176 74.897 81.9176 74.897L68.838 66.2539Z" fill="#E28413"/>
<path d="M68.838 66.2539C78.9217 65.972 81.9176 74.897 81.9176 74.897" stroke="#8C501F" stroke-width="2.68" stroke-miterlimit="10" stroke-linecap="round"/>
<path d="M78.6607 57.073C89.6578 55.3245 92.4031 63.451 92.7111 65.5074L78.6607 57.073Z" fill="#E28413"/>
<path d="M78.6607 57.073C89.6578 55.3245 92.4031 63.451 92.7111 65.5074" stroke="#8C501F" stroke-width="2.68" stroke-miterlimit="10" stroke-linecap="round"/>
<path d="M111.944 67.9345C119.601 63.1014 116.501 47.4539 116.501 47.4539C122.618 54.9123 119.267 61.6818 119.267 61.6818C130.18 44.171 125.707 40.481 125.707 40.481C131.543 48.67 120.676 63.6025 120.676 63.6025C139.147 55.142 143.385 58.6546 143.385 58.6546C128.176 64.1087 121.511 68.1171 121.511 68.1171C137.472 76.4993 136.068 80.1424 136.068 80.1424C124.105 71.4732 116.537 70.7999 116.537 70.7999C126.626 76.3428 125.212 82.2354 125.212 82.2354C121.72 76.4106 114.131 72.684 114.131 72.684L111.939 67.9397L111.944 67.9345Z" fill="#256B25" stroke="#2B5916" stroke-width="1.38" stroke-miterlimit="10"/>
<path d="M100.843 64.046C68.2534 74.4324 39.0201 92.7625 34.2967 95.795C33.9209 96.035 33.5712 96.3169 33.2841 96.6614C29.6776 100.936 24.3017 100.257 20.9874 99.2606C18.8162 98.6082 16.4466 99.2084 14.8652 100.837C11.8223 103.963 11.6971 106.082 11.6971 106.082C13.6804 104.605 15.3819 103.723 16.7337 103.201C18.4352 102.549 20.3194 102.523 22.0522 103.097C28.0909 105.091 31.8279 103.306 33.7956 101.656C35.3823 100.331 37.3656 99.5842 39.422 99.4067C63.1959 97.3555 95.9836 87.8721 107.33 84.4273C110.404 83.4931 112.878 81.1131 113.766 78.0285C115.509 71.9689 112.586 67.9813 109.606 65.6222C107.137 63.6649 103.839 63.0908 100.838 64.046H100.843Z" fill="#E28413" stroke="#8C501F" stroke-width="2.68" stroke-linejoin="round"/>
<path d="M53.5559 84.5735C59.4172 87.5902 57.7157 92.5486 57.7157 92.5486L53.5559 84.5735Z" fill="#E28413"/>
<path d="M53.5559 84.5735C59.4172 87.5902 57.7157 92.5486 57.7157 92.5486" stroke="#8C501F" stroke-width="2.68" stroke-miterlimit="10" stroke-linecap="round"/>
<path d="M66.6407 77.8928C72.2201 80.9826 74.0051 87.1258 73.0187 89.6415L66.6407 77.8928Z" fill="#E28413"/>
<path d="M66.6407 77.8928C72.2201 80.9826 74.0051 87.1258 73.0187 89.6415" stroke="#8C501F" stroke-width="2.68" stroke-miterlimit="10" stroke-linecap="round"/>
<path d="M78.2327 72.5847C87.7423 75.9512 87.3195 85.3563 87.3195 85.3563L78.2327 72.5847Z" fill="#E28413"/>
<path d="M78.2327 72.5847C87.7423 75.9512 87.3195 85.3563 87.3195 85.3563" stroke="#8C501F" stroke-width="2.68" stroke-miterlimit="10" stroke-linecap="round"/>
<path d="M90.7068 67.5586C101.6 69.8864 101.234 78.4565 100.775 80.4868L90.7068 67.5586Z" fill="#E28413"/>
<path d="M90.7068 67.5586C101.6 69.8864 101.234 78.4565 100.775 80.4868" stroke="#8C501F" stroke-width="2.68" stroke-miterlimit="10" stroke-linecap="round"/>
<path d="M81.7349 99.8816C83.2224 110.67 75.0542 119.6 66.8129 119.6C58.5716 119.6 49.8606 110.581 51.8909 99.8816C54.2918 87.2405 58.5716 80.1631 66.8129 80.1631C75.0542 80.1631 80.19 88.7019 81.7349 99.8816Z" fill="#AA4F3F" stroke="#7C382F" stroke-width="2.34" stroke-miterlimit="10"/>
<path d="M56.9954 98.7544C67.2148 102.512 71.2597 113.922 67.3818 121.197C63.5091 128.473 51.4525 131.923 42.9607 125.096C34.5681 118.348 29.6984 111.072 29.9699 104.626C30.0742 102.147 31.4521 99.8923 33.5451 98.5666C39.3176 94.9078 48.0182 95.4611 56.9902 98.7597L56.9954 98.7544Z" fill="white" stroke="#A7A9AC" stroke-width="2.34" stroke-miterlimit="10"/>
<path d="M113.202 77.418L92.2778 91.7815L85.0648 96.7346L72.9038 105.08L133.349 102.679C133.349 88.4411 113.202 77.418 113.202 77.418Z" fill="#FBB040" stroke="#F7941D" stroke-width="1.22" stroke-linecap="round" stroke-linejoin="round"/>
<path d="M72.9038 105.08V118.426L133.349 120.101V102.679" fill="#F29E2F"/>
<path d="M72.9038 105.08V118.426L133.349 120.101V102.679" stroke="#F7941D" stroke-width="1.22" stroke-miterlimit="10"/>
<path d="M103.525 94.5215C106.35 94.5215 108.64 93.5237 108.64 92.2929C108.64 91.062 106.35 90.0642 103.525 90.0642C100.701 90.0642 98.4105 91.062 98.4105 92.2929C98.4105 93.5237 100.701 94.5215 103.525 94.5215Z" fill="#D37E20"/>
<path d="M92.2048 104.198C95.0297 104.198 97.3197 103.2 97.3197 101.969C97.3197 100.739 95.0297 99.7407 92.2048 99.7407C89.3799 99.7407 87.0899 100.739 87.0899 101.969C87.0899 103.2 89.3799 104.198 92.2048 104.198Z" fill="#D37E20"/>
<path d="M122.195 100.466C125.749 100.466 128.63 99.2113 128.63 97.6634C128.63 96.1154 125.749 94.8606 122.195 94.8606C118.641 94.8606 115.759 96.1154 115.759 97.6634C115.759 99.2113 118.641 100.466 122.195 100.466Z" fill="#D37E20"/>
<path d="M110.003 87.4806C111.591 87.4806 112.878 86.9198 112.878 86.228C112.878 85.5362 111.591 84.9753 110.003 84.9753C108.414 84.9753 107.127 85.5362 107.127 86.228C107.127 86.9198 108.414 87.4806 110.003 87.4806Z" fill="#D37E20"/>
<path d="M115.42 117.027C118.147 117.027 120.358 114.816 120.358 112.09C120.358 109.363 118.147 107.152 115.42 107.152C112.693 107.152 110.483 109.363 110.483 112.09C110.483 114.816 112.693 117.027 115.42 117.027Z" fill="#D37E20"/>
<path d="M79.9133 110.868C81.4036 110.868 82.6117 109.66 82.6117 108.17C82.6117 106.68 81.4036 105.472 79.9133 105.472C78.4231 105.472 77.215 106.68 77.215 108.17C77.215 109.66 78.4231 110.868 79.9133 110.868Z" fill="#D37E20"/>
<path d="M89.997 119.203C89.997 116.286 92.3613 113.916 95.2842 113.916C98.207 113.916 100.571 116.281 100.571 119.203" fill="#D37E20"/>
<path d="M133.474 115.691C131.48 115.691 129.867 114.078 129.867 112.084C129.867 110.091 131.48 108.478 133.474 108.478" fill="#D37E20"/>
</svg>
