<svg width="138" height="128" viewBox="0 0 138 128" fill="none" xmlns="http://www.w3.org/2000/svg">
<path d="M31.6374 51.5422C41.0228 64.7709 43.3679 85.6666 43.3679 85.6666C52.6603 93.9798 59.6419 85.2406 59.6419 85.2406C60.4938 67.9679 66.8192 56.208 66.8192 56.208C61.2771 51.5569 62.0751 53.2607 62.0751 53.2607C60.9687 57.2508 59.823 60.2863 58.8536 62.4845C57.5758 65.3878 53.4143 65.4123 52.1561 62.4992C50.2663 58.1125 51.6567 53.0453 51.6567 53.0453L47.1965 51.5422C47.6029 56.5801 47.4952 60.2226 47.2014 62.8077C46.9713 64.8346 44.2002 65.236 43.3973 63.3609C40.6556 56.9571 39.2946 51.5422 39.2946 51.5422H31.6227H31.6374Z" fill="#409140" stroke="#2B5916" stroke-width="1.38" stroke-miterlimit="10"/>
<path d="M19.1088 27.1801C18.7074 20.2035 26.9422 21.3638 27.7843 25.8484C29.8798 21.7261 35.1918 19.425 36.6263 24.0222C42.095 21.026 44.8514 21.6184 45.4732 25.6673C48.4352 23.0627 52.675 25.7946 52.0973 29.2511C55.779 29.0405 58.2172 34.2693 56.0483 37.1139C61.6688 36.7907 59.8132 45.148 56.5575 45.9754C60.0923 48.1639 56.3665 52.8492 53.5759 51.6448C54.56 55.2825 45.3214 56.903 45.2578 52.3743C40.6948 56.6631 36.9543 53.378 38.0461 48.6486C33.9972 56.0022 29.351 53.0353 28.7195 48.7954C26.1638 55.1258 21.1847 53.0059 21.2826 47.9974C17.831 55.6007 10.3648 47.5127 15.0012 43.5519C7.86787 41.2411 8.3085 35.3807 13.694 34.2938C9.64019 24.6342 19.1186 27.1752 19.1186 27.1752L19.1088 27.1801Z" fill="#256B25" stroke="#2B5916" stroke-width="1.2" stroke-miterlimit="10"/>
<path d="M33.6202 7.20499C33.1796 -0.515828 41.4194 0.820749 42.2908 5.78518C44.3618 1.2369 49.664 -1.27469 51.123 3.82193C56.5721 0.536788 59.3334 1.21242 59.9797 5.69705C62.927 2.83785 67.1864 5.8782 66.6283 9.70189C70.31 9.49137 72.7824 15.293 70.6282 18.4264C76.2487 18.1032 74.447 27.3369 71.1913 28.2328C74.7408 30.671 71.0444 35.8361 68.2439 34.4898C69.2525 38.5191 60.0189 40.2522 59.9258 35.2486C55.3873 39.9634 51.6273 36.3061 52.6848 31.0822C48.68 39.1898 44.0142 35.8851 43.3581 31.185C40.8417 38.1715 35.843 35.797 35.9164 30.2597C32.5089 38.6513 24.9937 29.6575 29.6056 25.3051C22.4576 22.7005 22.864 16.2232 28.2396 15.0531C24.1271 4.34579 33.6251 7.21478 33.6251 7.21478L33.6202 7.20499Z" fill="#256B25" stroke="#2B5916" stroke-width="1.26" stroke-miterlimit="10"/>
<path d="M52.8219 20.2084C52.4204 13.2318 60.6553 14.3921 61.4974 18.8767C63.5929 14.7544 68.9049 12.4533 70.3394 17.0506C75.8081 14.0543 78.5645 14.6467 79.1863 18.6956C82.1483 16.091 86.3881 18.8229 85.8104 22.2794C89.4921 22.0689 91.9303 27.2977 89.7614 30.1422C95.3819 29.819 93.5263 38.1763 90.2705 39.0037C93.8054 41.1922 90.0796 45.8776 87.289 44.6732C88.273 48.3108 79.0345 49.9314 78.9708 45.4027C74.4079 49.6915 70.6674 46.4063 71.7592 41.6769C67.7103 49.0305 63.0641 46.0636 62.4325 41.8238C59.8769 48.1541 54.8978 46.0342 54.9957 41.0257C51.5441 48.629 44.0779 40.541 48.7143 36.5803C41.5809 34.2694 42.0216 28.409 47.4071 27.3221C43.3533 17.6626 52.8317 20.2035 52.8317 20.2035L52.8219 20.2084Z" fill="#256B25" stroke="#2B5916" stroke-width="1.2" stroke-miterlimit="10"/>
<path d="M36.7732 26.5095C36.2934 18.1522 45.3801 19.5916 46.33 24.9624C48.6212 20.0371 54.4669 17.315 56.0679 22.8278C62.08 19.2684 65.1253 19.9979 65.8303 24.8449C69.0811 21.7458 73.7714 25.0358 73.1545 29.1728C77.2132 28.9378 79.9353 35.2143 77.5559 38.6121C83.7541 38.2547 81.7517 48.2521 78.163 49.2215C82.0748 51.8555 77.9917 57.4466 74.9073 55.9925C76.0137 60.3547 65.8303 62.2397 65.7373 56.8199C60.7288 61.9263 56.5819 57.9753 57.7619 52.3157C53.336 61.094 48.2002 57.52 47.4756 52.4381C44.6947 60.0022 39.1869 57.4368 39.2701 51.4442C35.5051 60.5261 27.2262 50.8029 32.3179 46.0881C24.4404 43.2779 24.8958 36.267 30.8247 34.9989C26.3009 23.4153 36.7683 26.5095 36.7683 26.5095H36.7732Z" fill="#256B25" stroke="#2B5916" stroke-width="1.38" stroke-miterlimit="10"/>
<path d="M24.5677 75.3958C26.7025 70.9745 24.793 64.6436 24.793 64.6436C28.2057 63.3657 27.8483 64.4086 27.8483 64.4086C28.661 67.9045 26.7858 75.3958 26.7858 75.3958C25.9338 75.67 24.5677 75.3958 24.5677 75.3958Z" fill="#409140" stroke="#2B5916" stroke-width="0.77" stroke-miterlimit="10"/>
<path d="M22.0464 72.2517C19.3194 71.3557 15.1285 71.8404 11.7503 72.5014C7.7161 73.2945 4.28408 75.9824 2.64396 79.7522C0.519142 84.6481 0.763936 88.9663 1.65009 92.2122C2.63906 95.8107 5.02825 98.8608 8.24485 100.76C23.0206 109.485 35.9507 104.432 35.9507 104.432C51.9358 100.707 49.9186 83.4829 49.9186 83.4829C48.6261 71.8551 38.7169 71.1158 33.9678 71.4439C32.7341 71.5271 31.5346 71.8209 30.3694 72.2321C27.9067 73.0987 25.1406 72.8784 23.662 72.6629C23.1137 72.5797 22.5751 72.4328 22.0464 72.2566V72.2517Z" fill="#E03614" stroke="#892520" stroke-width="1.5" stroke-miterlimit="10"/>
<path d="M25.498 71.3853C20.7294 68.3302 8.01965 69.5689 11.0061 69.7598C13.9926 69.9508 21.1553 71.3853 21.1553 71.3853C9.72342 71.1454 8.52882 75.5174 8.52882 75.5174C13.5618 73.5346 22.6877 73.5346 22.6877 73.5346C17.0575 74.3864 16.6315 80.2713 16.6315 80.2713C19.2753 77.2016 26.3058 74.3864 26.3058 74.3864C30.0609 78.5479 28.0487 83.2578 28.0487 83.2578C29.2531 78.0535 28.4991 74.6214 28.4991 74.6214C34.6876 75.5615 35.9948 81.1281 35.9948 81.1281C34.8883 76.4378 30.8785 73.6227 30.8785 73.6227C37.3607 72.2567 40.5186 74.22 40.5186 74.22C36.6802 70.8957 29.7721 71.3902 29.7721 71.3902C36.6802 70.8957 38.898 71.3902 38.898 71.3902C35.9115 69.187 27.848 70.7243 27.848 70.7243" fill="#409140"/>
<path d="M25.498 71.3853C20.7294 68.3302 8.01965 69.5689 11.0061 69.7598C13.9926 69.9508 21.1553 71.3853 21.1553 71.3853C9.72342 71.1454 8.52882 75.5174 8.52882 75.5174C13.5618 73.5346 22.6877 73.5346 22.6877 73.5346C17.0575 74.3864 16.6315 80.2713 16.6315 80.2713C19.2753 77.2016 26.3058 74.3864 26.3058 74.3864C30.0609 78.5479 28.0487 83.2578 28.0487 83.2578C29.2531 78.0535 28.4991 74.6214 28.4991 74.6214C34.6876 75.5615 35.9948 81.1281 35.9948 81.1281C34.8883 76.4378 30.8786 73.6227 30.8786 73.6227C37.3607 72.2567 40.5186 74.22 40.5186 74.22C36.6802 70.8957 29.7721 71.3902 29.7721 71.3902C36.6802 70.8957 38.898 71.3902 38.898 71.3902C35.9115 69.187 27.848 70.7243 27.848 70.7243" stroke="#2B5916" stroke-width="0.77" stroke-miterlimit="10"/>
<path d="M94.246 57.7941C99.3133 50.979 91.3183 38.333 91.3183 38.333C99.1909 42.7931 98.5446 49.8481 98.5446 49.8481C102.182 30.8423 97.022 29.1189 97.022 29.1189C104.895 34.3134 100.425 51.0525 100.425 51.0525C113.732 37.4125 118.623 39.0527 118.623 39.0527C107.156 48.9619 102.677 54.7195 102.677 54.7195C119.475 56.6681 119.479 60.3253 119.479 60.3253C106.084 56.7758 99.2349 58.7439 99.2349 58.7439C109.937 60.1882 110.686 65.8185 110.686 65.8185C105.663 61.9018 97.7613 61.2016 97.7613 61.2016L94.2411 57.7892L94.246 57.7941Z" fill="#256B25" stroke="#2B5916" stroke-width="1.38" stroke-miterlimit="10"/>
<path d="M83.2205 58.1418C58.2074 78.2346 38.8148 104.153 35.7108 108.403C35.4611 108.741 35.2555 109.103 35.1184 109.5C33.4048 114.459 28.4698 115.683 25.2385 115.928C23.1186 116.09 21.2483 117.416 20.4111 119.375C18.8004 123.14 19.4124 125.034 19.4124 125.034C20.651 123.071 21.8407 121.725 22.8493 120.814C24.1173 119.664 25.7574 119.012 27.471 118.929C33.4293 118.635 36.0927 115.811 37.2628 113.7C38.2028 112.002 39.6862 110.68 41.4292 109.833C61.5415 100.007 87.0344 80.6385 95.798 73.7891C98.1725 71.9336 99.5336 69.0156 99.2692 66.0144C98.7502 60.1198 94.8433 57.618 91.4407 56.5605C88.6206 55.6841 85.5411 56.2912 83.2352 58.1418H83.2205Z" fill="#E28413" stroke="#8C501F" stroke-width="2.68" stroke-linejoin="round"/>
<path d="M48.7681 92.0703C54.9178 92.7313 55.1039 97.6472 55.1039 97.6472L48.7681 92.0703Z" fill="#E28413"/>
<path d="M48.7681 92.0703C54.9178 92.7313 55.1039 97.6472 55.1039 97.6472" stroke="#8C501F" stroke-width="2.68" stroke-miterlimit="10" stroke-linecap="round"/>
<path d="M57.9626 81.8086C63.8871 82.6263 67.525 87.405 67.5104 89.9364L57.9626 81.8086Z" fill="#E28413"/>
<path d="M57.9626 81.8086C63.8871 82.6263 67.525 87.405 67.5104 89.9364" stroke="#8C501F" stroke-width="2.68" stroke-miterlimit="10" stroke-linecap="round"/>
<path d="M66.315 73.2505C75.7738 72.9861 78.5841 81.3581 78.5841 81.3581L66.315 73.2505Z" fill="#E28413"/>
<path d="M66.315 73.2505C75.7738 72.9861 78.5841 81.3581 78.5841 81.3581" stroke="#8C501F" stroke-width="2.68" stroke-miterlimit="10" stroke-linecap="round"/>
<path d="M75.5339 64.6387C85.8496 62.9985 88.4248 70.6214 88.7137 72.5504L75.5339 64.6387Z" fill="#E28413"/>
<path d="M75.5339 64.6387C85.8496 62.9985 88.4248 70.6214 88.7137 72.5504" stroke="#8C501F" stroke-width="2.68" stroke-miterlimit="10" stroke-linecap="round"/>
<path d="M106.755 74.8222C113.937 70.2886 111.029 55.6107 111.029 55.6107C116.767 62.607 113.624 68.9569 113.624 68.9569C123.861 52.5312 119.665 49.0698 119.665 49.0698C125.139 56.7515 114.946 70.7586 114.946 70.7586C132.272 62.8224 136.248 66.1173 136.248 66.1173C121.981 71.2335 115.729 74.9935 115.729 74.9935C130.701 82.8563 129.384 86.2737 129.384 86.2737C118.162 78.1416 111.063 77.51 111.063 77.51C120.527 82.7095 119.2 88.2369 119.2 88.2369C115.925 82.7731 108.806 79.2775 108.806 79.2775L106.75 74.8271L106.755 74.8222Z" fill="#256B25" stroke="#2B5916" stroke-width="1.38" stroke-miterlimit="10"/>
<path d="M96.3415 71.1796C65.7715 80.9224 38.3497 98.1167 33.9189 100.961C33.5664 101.186 33.2384 101.451 32.9691 101.774C29.586 105.784 24.5433 105.147 21.4344 104.212C19.3977 103.6 17.175 104.163 15.6915 105.691C12.8372 108.623 12.7197 110.611 12.7197 110.611C14.5801 109.226 16.1762 108.398 17.4442 107.909C19.0403 107.297 20.8077 107.272 22.4331 107.811C28.0977 109.681 31.6031 108.006 33.4489 106.459C34.9372 105.216 36.7977 104.516 38.7266 104.349C61.0274 102.425 91.7834 93.5293 102.427 90.298C105.311 89.4217 107.631 87.1891 108.464 84.2957C110.099 78.6115 107.357 74.8711 104.562 72.6581C102.246 70.8222 99.1517 70.2836 96.3366 71.1796H96.3415Z" fill="#E28413" stroke="#8C501F" stroke-width="2.68" stroke-linejoin="round"/>
<path d="M51.9847 90.4302C57.4832 93.2602 55.8871 97.9117 55.8871 97.9117L51.9847 90.4302Z" fill="#E28413"/>
<path d="M51.9847 90.4302C57.4832 93.2602 55.8871 97.9117 55.8871 97.9117" stroke="#8C501F" stroke-width="2.68" stroke-miterlimit="10" stroke-linecap="round"/>
<path d="M64.2587 84.1633C69.4929 87.0619 71.1674 92.8249 70.242 95.1849L64.2587 84.1633Z" fill="#E28413"/>
<path d="M64.2587 84.1633C69.4929 87.0619 71.1674 92.8249 70.242 95.1849" stroke="#8C501F" stroke-width="2.68" stroke-miterlimit="10" stroke-linecap="round"/>
<path d="M75.1324 79.1843C84.0535 82.3424 83.6569 91.1655 83.6569 91.1655L75.1324 79.1843Z" fill="#E28413"/>
<path d="M75.1324 79.1843C84.0535 82.3424 83.6569 91.1655 83.6569 91.1655" stroke="#8C501F" stroke-width="2.68" stroke-miterlimit="10" stroke-linecap="round"/>
<path d="M86.8287 74.4695C97.0473 76.6532 96.7046 84.6929 96.2737 86.5976L86.8287 74.4695Z" fill="#E28413"/>
<path d="M86.8287 74.4695C97.0473 76.6532 96.7046 84.6929 96.2737 86.5976" stroke="#8C501F" stroke-width="2.68" stroke-miterlimit="10" stroke-linecap="round"/>
<path d="M78.4176 104.79C79.8129 114.91 72.1509 123.287 64.4202 123.287C56.6896 123.287 48.5184 114.826 50.4229 104.79C52.675 92.932 56.6896 86.2932 64.4202 86.2932C72.1509 86.2932 76.9684 94.3029 78.4176 104.79Z" fill="#AA4F3F" stroke="#7C382F" stroke-width="2.34" stroke-miterlimit="10"/>
<path d="M98.2264 117.661C93.0318 126.459 81.8203 128.256 75.7641 123.453C69.7078 118.65 68.5622 106.939 76.2977 100.261C83.9451 93.6564 91.4798 90.3958 97.3794 91.7372C99.6462 92.2513 101.497 93.9061 102.368 96.0652C104.772 102.009 102.784 109.94 98.2264 117.661Z" fill="white" stroke="#A7A9AC" stroke-width="2.34" stroke-miterlimit="10"/>
</svg>
