<svg width="110" height="136" viewBox="0 0 110 136" fill="none" xmlns="http://www.w3.org/2000/svg">
<path d="M46.5669 52.3394C56.1003 65.7767 58.4824 87.002 58.4824 87.002C67.9214 95.4463 75.0131 86.5693 75.0131 86.5693C75.8784 69.0242 82.3037 57.0787 82.3037 57.0787C76.6741 52.3543 77.4847 54.0849 77.4847 54.0849C76.3608 58.138 75.1971 61.2213 74.2124 63.4543C72.9144 66.4033 68.6873 66.4282 67.4092 63.4692C65.4896 59.0133 66.9019 53.8661 66.9019 53.8661L62.3714 52.3394C62.7842 57.4567 62.6748 61.1567 62.3764 63.7825C62.1427 65.8414 59.3279 66.2492 58.5123 64.3444C55.7273 57.8396 54.3448 52.3394 54.3448 52.3394H46.5519H46.5669Z" fill="#409140" stroke="#2B5916" stroke-width="1.38" stroke-miterlimit="10"/>
<path d="M33.8407 27.5931C33.4329 20.5064 41.7976 21.685 42.653 26.2404C44.7815 22.053 50.1773 19.7157 51.6345 24.3854C57.1894 21.3419 59.9893 21.9436 60.6209 26.0564C63.6296 23.4107 67.9363 26.1857 67.3495 29.6967C71.0893 29.4829 73.5659 34.7942 71.3628 37.6835C77.0719 37.3553 75.1871 45.8444 71.88 46.6849C75.4706 48.9079 71.6861 53.6671 68.8514 52.4437C69.851 56.1388 60.4667 57.7849 60.4021 53.1847C55.7671 57.5412 51.9677 54.2042 53.0767 49.4002C48.9639 56.8698 44.2444 53.8561 43.6029 49.5494C41.0069 55.9796 35.9493 53.8263 36.0487 48.7388C32.5427 56.462 24.9587 48.2464 29.6682 44.2232C22.4224 41.8759 22.87 35.9231 28.3404 34.819C24.2227 25.0071 33.8506 27.5881 33.8506 27.5881L33.8407 27.5931Z" fill="#256B25" stroke="#2B5916" stroke-width="1.2" stroke-miterlimit="10"/>
<path d="M48.576 7.30286C48.1284 -0.539739 56.4982 0.817921 57.3834 5.86066C59.487 1.24064 64.8729 -1.31057 66.3549 3.86644C71.8899 0.529481 74.6948 1.21577 75.3512 5.77114C78.3451 2.86684 82.6717 5.95515 82.1047 9.83915C85.8445 9.62531 88.3559 15.5184 86.1678 18.7012C91.8769 18.373 90.0468 27.7523 86.7397 28.6624C90.3452 31.139 86.5905 36.3856 83.7459 35.018C84.7703 39.1109 75.391 40.8714 75.2965 35.7889C70.6865 40.578 66.8671 36.8631 67.9413 31.5567C63.8733 39.7922 59.1339 36.4354 58.4675 31.6612C55.9113 38.7578 50.8338 36.3458 50.9084 30.7213C47.4471 39.2452 39.8134 30.1096 44.498 25.6885C37.2373 23.0428 37.6501 16.4633 43.1105 15.2748C38.9331 4.39856 48.581 7.31281 48.581 7.31281L48.576 7.30286Z" fill="#256B25" stroke="#2B5916" stroke-width="1.26" stroke-miterlimit="10"/>
<path d="M68.0805 20.5115C67.6727 13.4249 76.0375 14.6035 76.8929 19.1589C79.0214 14.9715 84.4172 12.6341 85.8743 17.3039C91.4293 14.2603 94.2292 14.8621 94.8608 18.9749C97.8695 16.3292 102.176 19.1042 101.589 22.6152C105.329 22.4013 107.806 27.7126 105.603 30.602C111.312 30.2738 109.427 38.7629 106.12 39.6033C109.71 41.8263 105.926 46.5856 103.091 45.3622C104.091 49.0572 94.7066 50.7033 94.6419 46.1032C90.007 50.4596 86.2076 47.1227 87.3166 42.3187C83.2038 49.7883 78.4843 46.7746 77.8428 42.4678C75.2468 48.8981 70.1891 46.7447 70.2886 41.6572C66.7826 49.3805 59.1986 41.1649 63.9081 37.1416C56.6623 34.7943 57.1099 28.8415 62.5803 27.7375C58.4625 17.9255 68.0905 20.5066 68.0905 20.5066L68.0805 20.5115Z" fill="#256B25" stroke="#2B5916" stroke-width="1.2" stroke-miterlimit="10"/>
<path d="M51.7837 26.9118C51.2963 18.4227 60.5264 19.8848 61.4912 25.3403C63.8186 20.3373 69.7565 17.5723 71.3827 23.172C77.4897 19.5566 80.583 20.2975 81.2991 25.2209C84.6012 22.073 89.3655 25.4149 88.7389 29.6172C92.8616 29.3785 95.6266 35.754 93.2097 39.2053C99.5057 38.8423 97.4717 48.9974 93.8264 49.9821C97.7999 52.6576 93.6523 58.3369 90.5192 56.8599C91.6432 61.2909 81.2991 63.2056 81.2046 57.7003C76.1171 62.8873 71.9049 58.874 73.1034 53.1251C68.6077 62.0419 63.3909 58.4115 62.6549 53.2494C59.8302 60.9329 54.2354 58.327 54.3199 52.2399C50.4956 61.465 42.0861 51.5884 47.2581 46.7993C39.2564 43.9447 39.7189 36.8232 45.7413 35.5352C41.1462 23.7688 51.7787 26.9118 51.7787 26.9118H51.7837Z" fill="#256B25" stroke="#2B5916" stroke-width="1.38" stroke-miterlimit="10"/>
<path d="M32.0255 68.5369C34.1938 64.0462 32.2542 57.616 32.2542 57.616C35.7205 56.318 35.3575 57.3773 35.3575 57.3773C36.183 60.9281 34.2783 68.5369 34.2783 68.5369C33.413 68.8154 32.0255 68.5369 32.0255 68.5369Z" fill="#409140" stroke="#2B5916" stroke-width="0.77" stroke-miterlimit="10"/>
<path d="M29.4643 65.3491C26.6943 64.439 22.4373 64.9313 19.0059 65.6027C14.908 66.4083 11.4219 69.1386 9.75587 72.9679C7.59753 77.941 7.84619 82.3273 8.74632 85.6245C9.75089 89.2797 12.1778 92.3779 15.4451 94.3075C30.454 103.17 43.588 98.0373 43.588 98.0373C59.8252 94.2528 57.7763 76.7574 57.7763 76.7574C56.4634 64.9462 46.3978 64.1953 41.5739 64.5285C40.3206 64.613 39.1022 64.9114 37.9186 65.3292C35.4171 66.2094 32.6073 65.9856 31.1054 65.7668C30.5485 65.6823 30.0014 65.5331 29.4643 65.354V65.3491Z" fill="#E03614" stroke="#892520" stroke-width="1.5" stroke-miterlimit="10"/>
<path d="M32.9704 64.4689C28.1265 61.3656 15.2163 62.6238 18.2499 62.8178C21.2835 63.0117 28.5592 64.4689 28.5592 64.4689C16.947 64.2252 15.7335 68.6662 15.7335 68.6662C20.8459 66.6521 30.1158 66.6521 30.1158 66.6521C24.3967 67.5174 23.9641 73.4951 23.9641 73.4951C26.6495 70.3769 33.7909 67.5174 33.7909 67.5174C37.6053 71.7445 35.5613 76.5287 35.5613 76.5287C36.7847 71.2422 36.0189 67.7561 36.0189 67.7561C42.3049 68.7109 43.6327 74.3654 43.6327 74.3654C42.5088 69.6011 38.4358 66.7416 38.4358 66.7416C45.0202 65.3541 48.2279 67.3483 48.2279 67.3483C44.3289 63.9716 37.3119 64.4738 37.3119 64.4738C44.329 63.9716 46.5818 64.4738 46.5818 64.4738C43.5482 62.2359 35.3575 63.7975 35.3575 63.7975" fill="#409140"/>
<path d="M32.9704 64.4689C28.1265 61.3656 15.2163 62.6238 18.2499 62.8178C21.2835 63.0117 28.5592 64.4689 28.5592 64.4689C16.947 64.2252 15.7335 68.6662 15.7335 68.6662C20.8459 66.6521 30.1158 66.6521 30.1158 66.6521C24.3967 67.5174 23.9641 73.4951 23.9641 73.4951C26.6495 70.3769 33.7909 67.5174 33.7909 67.5174C37.6053 71.7445 35.5613 76.5287 35.5613 76.5287C36.7847 71.2422 36.0189 67.7561 36.0189 67.7561C42.3049 68.7109 43.6327 74.3654 43.6327 74.3654C42.5088 69.6011 38.4358 66.7416 38.4358 66.7416C45.0202 65.3541 48.2279 67.3483 48.2279 67.3483C44.3289 63.9716 37.3119 64.4738 37.3119 64.4738C44.329 63.9716 46.5818 64.4738 46.5818 64.4738C43.5482 62.2359 35.3575 63.7975 35.3575 63.7975" stroke="#2B5916" stroke-width="0.77" stroke-miterlimit="10"/>
<path d="M8.77119 88.0114C-0.503662 96.3563 8.16945 102.961 8.16945 102.961C11.2776 106.273 16.4 103.562 16.4 103.562C19.2098 101.553 14.5947 88.0114 14.5947 88.0114C12.7895 85.8033 8.77617 88.0114 8.77617 88.0114H8.77119Z" fill="#EAA296" stroke="#B76656" stroke-width="0.53" stroke-miterlimit="10"/>
<path d="M12.0534 86.9572C5.63316 88.464 11.4517 101.906 11.4517 101.906C14.5599 105.218 19.6822 102.508 19.6822 102.508C22.492 100.499 17.877 86.9572 17.877 86.9572C16.0717 84.7491 12.0584 86.9572 12.0584 86.9572H12.0534Z" fill="#DB6C56" stroke="#B76656" stroke-width="0.53" stroke-miterlimit="10"/>
<path d="M2.06246 127.787C2.99741 131.218 4.12133 131.029 4.12133 131.029C9.8603 129.845 12.6651 126.538 12.6651 126.538C10.109 129.343 4.68329 131.899 4.68329 131.899C5.24525 133.148 5.61824 132.899 5.61824 132.899C12.4165 129.716 15.2213 125.106 15.2213 125.106C15.286 121.988 12.9486 119.805 12.9486 119.805C10.7903 118.994 1.00319 122.799 1.00319 122.799C0.938538 125.544 1.87846 126.727 1.87846 126.727C3.93733 126.414 4.9966 126.165 4.9966 126.165L2.06743 127.787H2.06246Z" fill="#AA4F3F" stroke="#B76656" stroke-width="0.41" stroke-miterlimit="10"/>
<path d="M22.8451 123.156C29.5638 119.75 20.6917 115.518 20.6917 115.518C16.6784 115.17 11.6059 118.631 11.6059 118.631C8.92038 120.789 16.4994 125.573 16.4994 125.573C18.8815 125.917 22.8451 123.161 22.8451 123.161V123.156Z" fill="#DB6C56" stroke="#B76656" stroke-width="0.41" stroke-miterlimit="10"/>
<path d="M29.1709 121.093C33.6567 118.362 26.2368 112.022 26.2368 112.022C23.1485 110.937 19.9159 114.016 19.9159 114.016C18.2599 116.015 24.7946 122.759 24.7946 122.759C26.6495 123.554 29.1659 121.098 29.1659 121.098L29.1709 121.093Z" fill="#EF8C7B" stroke="#B76656" stroke-width="0.53" stroke-miterlimit="10"/>
<path d="M20.3635 85.5895C13.7841 85.1419 15.3954 99.7032 15.3954 99.7032C17.3946 103.781 23.0838 102.697 23.0838 102.697C26.3611 101.603 25.9284 87.3002 25.9284 87.3002C24.8493 84.6595 20.3635 85.5895 20.3635 85.5895Z" fill="#EF8C7B" stroke="#B76656" stroke-width="0.53" stroke-miterlimit="10"/>
<path d="M28.8974 87.8724C23.0689 84.7791 18.608 98.7336 18.608 98.7336C18.7721 103.274 24.4067 104.602 24.4067 104.602C27.8431 104.94 33.2787 91.7017 33.2787 91.7017C33.3732 88.8521 28.8974 87.8724 28.8974 87.8724Z" fill="#DB6C56" stroke="#B76656" stroke-width="0.53" stroke-miterlimit="10"/>
<path d="M36.2526 93.4221C31.8564 88.5036 22.8352 100.046 22.8352 100.046C21.4128 104.363 26.2417 107.561 26.2417 107.561C29.3499 109.067 39.0376 98.5344 39.0376 98.5344C40.1118 95.8937 36.2526 93.4221 36.2526 93.4221Z" fill="#EF8C7B" stroke="#B76656" stroke-width="0.53" stroke-miterlimit="10"/>
<path d="M40.5494 100.469C40.8378 92.2981 25.5604 101.294 25.5604 101.294C22.7456 104.408 25.63 108.913 25.63 108.913C27.6889 111.345 39.2216 107.71 39.2216 107.71C41.1909 106.486 40.5444 100.474 40.5444 100.474L40.5494 100.469Z" fill="#DB6C56" stroke="#B76656" stroke-width="0.49" stroke-miterlimit="10"/>
<path d="M39.5697 109.804C40.1764 103.93 27.1021 104.92 27.1021 104.92C23.3921 106.581 24.1829 111.703 24.1829 111.703C25.0581 114.667 36.5411 115.881 36.5411 115.881C38.9381 115.001 39.5647 109.809 39.5647 109.809L39.5697 109.804Z" fill="#EF8C7B" stroke="#B76656" stroke-width="0.53" stroke-miterlimit="10"/>
<path d="M35.8747 116.622C39.0575 112.037 27.2911 108.719 27.2911 108.719C23.79 108.938 21.9848 113.34 21.9848 113.34C21.2487 116.01 30.633 119.954 30.633 119.954C32.8063 119.969 35.8747 116.622 35.8747 116.622Z" fill="#DB6C56" stroke="#B76656" stroke-width="0.41" stroke-miterlimit="10"/>
<path d="M37.9435 123.927C36.4515 124.186 32.5427 119.824 32.294 118.332C30.5186 107.61 41.5739 95.1726 55.9511 86.5791C70.3284 77.9856 91.3199 77.911 94.4878 77.9458C94.7514 77.9458 92.7472 74.0717 92.9909 74.1761C119.483 85.4005 96.8202 115.378 96.2433 116.602C81.3986 137.051 54.1757 135.171 45.8458 134.774C44.2693 134.699 40.7931 129.398 41.0069 127.836C41.6584 123.047 46.9946 125.509 48.2925 125.006C48.6456 124.867 49.0385 124.862 49.4165 124.902C54.0315 125.399 58.3283 124.385 61.6205 123.146C66.6234 121.267 70.2041 116.771 70.9053 111.475C71.2285 109.023 71.2136 106.765 71.144 105.258C71.0893 104.104 70.3035 103.125 69.1945 102.796C62.1725 100.728 56.523 102.055 52.639 103.895C48.3671 105.915 45.1446 109.714 44.1798 114.339C43.7421 116.433 43.946 117.761 44.1251 118.407C44.2544 118.87 44.2544 119.367 44.1151 119.829C43.3095 122.51 40.2112 123.539 37.9435 123.932V123.927Z" fill="#939598" stroke="#808285" stroke-width="1.19" stroke-miterlimit="10"/>
<path d="M35.6609 120.028C34.1689 120.287 32.7715 119.272 32.5278 117.775C30.7524 107.053 39.2912 91.2686 53.6685 82.6751C68.006 74.1064 89.0373 74.0069 92.2052 74.0417C92.4688 74.0417 92.7373 74.0865 92.9909 74.1661C111.013 79.9995 93.8413 108.316 92.6726 110.201C92.6329 110.266 92.5881 110.331 92.5433 110.39C77.6837 130.715 51.8732 131.262 43.5631 130.865C41.9867 130.79 40.7931 129.388 41.007 127.821C41.6535 123.072 44.6224 121.555 45.9751 121.107C46.3481 120.983 46.741 120.948 47.1338 120.988C51.7738 121.49 56.1004 120.456 59.3975 119.208C64.3756 117.328 67.9264 112.832 68.6227 107.561C68.9459 105.114 68.931 102.851 68.8614 101.349C68.8067 100.195 68.0159 99.2107 66.9069 98.8825C59.8899 96.8136 54.2404 98.1415 50.3564 99.9815C46.0845 102.001 42.8619 105.8 41.8972 110.425C41.4595 112.519 41.6634 113.847 41.8424 114.493C41.9668 114.946 41.9717 115.428 41.8424 115.881C41.0567 118.586 37.9336 119.625 35.6609 120.018V120.028Z" fill="#ED8A72" stroke="#B76656" stroke-width="1.19" stroke-miterlimit="10"/>
<path d="M78.2705 90.6521C76.0823 85.7934 44.3886 90.1647 44.3886 90.1647" stroke="#F1F2F2" stroke-width="1.19" stroke-miterlimit="10" stroke-linecap="round"/>
<path d="M80.3741 86.6837C75.9231 81.3426 59.7705 79.6567 59.7705 79.6567" stroke="#F1F2F2" stroke-width="1.19" stroke-miterlimit="10" stroke-linecap="round"/>
<path d="M84.0194 86.0373C83.9398 79.0749 78.2705 74.9771 78.2705 74.9771" stroke="#F1F2F2" stroke-width="1.19" stroke-miterlimit="10" stroke-linecap="round"/>
<path d="M39.4951 95.6752C39.4951 95.6752 66.1709 91.2094 74.2223 94.9342C76.9725 101.951 70.4676 126.817 70.4676 126.817" stroke="#F1F2F2" stroke-width="1.19" stroke-miterlimit="10" stroke-linecap="round"/>
<path d="M45.4031 103.363C40.3803 100.041 34.5767 104.393 34.5767 104.393" stroke="#F1F2F2" stroke-width="1.19" stroke-miterlimit="10" stroke-linecap="round"/>
<path d="M42.0662 109.714C36.8991 107.491 32.294 112.832 32.294 112.832" stroke="#F1F2F2" stroke-width="1.19" stroke-miterlimit="10" stroke-linecap="round"/>
<path d="M85.8793 88.3596C93.0058 87.9817 99.6648 94.9291 99.6648 94.9291" stroke="#F1F2F2" stroke-width="1.19" stroke-miterlimit="10" stroke-linecap="round"/>
<path d="M84.9891 91.219C91.5487 93.2431 95.8554 104.393 95.8554 104.393" stroke="#F1F2F2" stroke-width="1.19" stroke-miterlimit="10" stroke-linecap="round"/>
<path d="M82.1893 93.9443C88.0675 98.0173 79.1457 122.624 79.1457 122.624" stroke="#F1F2F2" stroke-width="1.19" stroke-miterlimit="10" stroke-linecap="round"/>
<path d="M61.521 118.333C66.8522 122.062 61.521 129.408 61.521 129.408" stroke="#F1F2F2" stroke-width="1.19" stroke-miterlimit="10" stroke-linecap="round"/>
<path d="M52.7584 120.914C57.3038 123.763 53.1811 130.651 53.1811 130.651" stroke="#F1F2F2" stroke-width="1.19" stroke-miterlimit="10" stroke-linecap="round"/>
<path d="M84.1055 92.9076C86.5823 91.0695 87.5194 88.1365 86.1985 86.3566C84.8776 84.5767 81.7989 84.6239 79.322 86.462C76.8452 88.3002 75.9081 91.2332 77.229 93.0131C78.5499 94.793 81.6286 94.7458 84.1055 92.9076Z" fill="#EFEFEF" stroke="#B5B5B5" stroke-width="1.19" stroke-miterlimit="10"/>
</svg>
