<svg width="137" height="112" viewBox="0 0 137 112" fill="none" xmlns="http://www.w3.org/2000/svg">
<path d="M15.1079 0.0209167C15.1959 0.825527 14.4917 1.70557 14.4917 1.70557C13.5987 2.05759 13.7874 2.51018 13.7874 2.51018L14.2275 3.66681C13.8754 4.55942 12.9825 4.10683 12.9825 4.10683C12.8064 3.30222 11.3852 3.84281 11.3852 3.84281C10.3162 5.26345 8.89508 5.61547 8.89508 5.61547C7.73804 6.42008 8.36686 7.47613 8.36686 7.47613C8.27883 8.72076 7.12178 9.16078 7.12178 9.16078C6.76964 10.0534 7.12178 10.4934 7.12178 10.4934C6.94571 12.0021 5.6126 13.8627 5.6126 13.8627C4.19144 13.6867 2.77029 13.4227 2.77029 13.4227V14.3153C3.66323 14.6673 3.66323 15.648 3.66323 15.648C3.57519 16.6286 2.77029 16.8926 2.77029 16.8926V18.4892L2.41815 19.6459C2.41815 19.6459 2.59422 19.3818 1.8019 19.6459C1.00957 19.9099 1.27368 21.1545 1.27368 21.1545L0.0160228 21.758C-0.160049 23.0906 1.17307 24.5112 1.17307 24.5112C3.0344 25.1273 3.66323 25.4039 3.66323 25.4039C4.82027 26.2085 4.46813 27.0885 4.46813 27.0885C4.38009 28.1571 4.90831 29.2132 4.90831 29.2132C6.15339 29.3012 6.85768 31.2498 6.85768 31.2498C6.94571 34.0031 6.50553 35.9518 6.50553 35.9518C5.97732 37.1084 5.97732 37.5484 5.97732 37.5484C7.31043 38.4411 8.90766 38.4411 8.90766 38.4411C10.5049 38.001 11.1211 36.4044 11.1211 36.4044C12.6303 36.1404 13.4352 34.9837 13.4352 34.9837C13.0831 33.2991 13.5233 32.8591 13.5233 32.8591C14.5923 33.3871 15.1331 36.0524 15.1331 36.0524C15.7493 38.001 15.9254 38.4536 15.9254 38.4536C16.3656 39.8743 15.9254 40.7669 15.9254 40.7669C16.2272 42.7784 18.1137 45.4437 18.1137 45.4437C19.1198 48.3981 18.7048 51.0005 18.7048 51.0005C17.6987 54.2567 17.2836 58.2169 17.2836 58.2169C17.5226 59.8764 18.5287 60.2284 18.5287 60.2284C21.6603 62.7679 22.9683 65.7852 22.9683 65.7852C23.3204 70.1603 25.5716 73.4165 25.5716 73.4165L25.9866 75.0131C28.2378 77.3766 32.4384 79.0361 32.4384 79.0361C33.8596 78.9733 34.2746 78.2693 34.2746 78.2693C33.0924 75.9057 31.8473 75.1388 31.8473 75.1388C32.1995 69.3431 31.3694 68.5134 31.3694 68.5134C28.5271 65.3201 27.1059 64.792 27.1059 64.792C26.8041 64.0251 26.4017 63.6731 26.4017 63.6731C24.1505 63.56 23.4965 61.7245 23.4965 61.7245C23.0186 58.77 21.3082 56.7585 21.3082 56.7585C20.302 56.9345 19.7109 55.275 19.7109 55.275C19.9499 52.2577 21.4213 50.4851 21.4213 50.4851C22.4903 48.4735 22.0753 45.9843 22.0753 45.9843C22.4275 44.0859 24.0247 44.2745 24.0247 44.2745C25.4458 45.1042 24.9176 46.1729 24.9176 46.1729C24.1505 46.9397 24.6787 47.5306 24.6787 47.5306C26.0369 47.7066 26.9928 47.1158 26.9928 47.1158C28.8289 47.8198 30.313 49.429 30.313 49.429C31.382 50.7365 30.7909 51.7926 30.7909 51.7926C30.9041 52.6223 31.6209 52.1446 31.6209 52.1446C32.3881 51.4908 32.6899 52.2074 32.6899 52.2074C32.3378 53.6281 33.105 53.5149 33.105 53.5149C34.7022 53.3389 36.3623 54.8224 36.3623 54.8224C36.0605 56.067 35.3562 56.2431 35.3562 56.2431C35.0543 57.6008 35.7712 58.9586 35.7712 58.9586C36.5384 59.1975 37.1295 58.2546 37.1295 58.2546C38.5506 57.1357 40.3239 55.891 40.3239 55.891C40.8018 54.8224 41.0911 53.5778 41.0911 53.5778C42.399 53.5149 44.1723 53.0498 44.1723 53.0498C47.895 51.2142 48.134 49.6805 48.134 49.6805C49.379 46.0723 48.134 42.1121 48.134 42.1121C45.8828 36.0775 41.6822 34.1791 41.6822 34.1791C39.7831 32.5196 40.0221 31.275 40.0221 31.275C39.016 29.9172 38.1859 28.9617 38.1859 28.9617C38.123 27.5411 38.7141 26.3593 38.7141 26.3593C39.8963 25.8313 41.0785 23.6438 41.0785 23.6438C42.0846 22.9397 42.7386 22.9397 42.7386 22.9397C43.6819 22.286 44.273 21.1671 44.273 21.1671L42.5625 20.7522C41.3175 20.2242 40.6635 18.6778 40.6635 18.6778C40.8396 17.9738 41.2546 17.1943 41.2546 17.1943C39.7202 17.496 37.8841 16.8423 37.8841 16.8423C37.2301 15.7234 36.2868 16.0754 36.2868 16.0754C35.6957 17.7349 34.0985 17.7349 34.0985 17.7349C32.7403 18.3258 31.7844 17.4332 31.7844 17.4332C30.6651 17.7349 30.5394 18.3761 30.5394 18.3761C29.4703 17.5463 28.7032 18.2629 28.7032 18.2629C27.5839 18.791 27.1688 18.1498 27.1688 18.1498C26.2759 18.2629 26.5777 19.2184 26.5777 19.2184C27.5839 20.5762 27.1688 21.7077 27.1688 21.7077C26.8167 22.6506 25.6848 22.1854 25.6848 22.1854C25.6219 20.7648 24.6158 20.7648 24.6158 20.7648C23.7229 21.5945 21.7106 20.2367 21.7106 20.2367C21.2956 19.407 20.0505 19.7087 20.0505 19.7087C19.6355 18.527 20.5284 17.5212 20.5284 17.5212C21.2956 16.5783 19.4594 16.2137 19.4594 16.2137C17.749 15.2708 18.8683 14.089 18.8683 14.089C18.8683 13.1964 16.9692 13.561 16.9692 13.561C15.9631 14.089 15.1959 13.385 15.1959 13.385C14.8438 11.7255 15.8499 10.1288 15.8499 10.1288C17.7993 8.64533 18.5665 7.52642 18.5665 7.52642C19.5097 3.8051 18.2646 2.38446 18.2646 2.38446C17.0195 2.49761 16.9567 1.20269 16.9567 1.20269C16.5039 -0.255668 15.1079 0.0209167 15.1079 0.0209167Z" fill="#588157"/>
<path d="M8.99568 68.991C8.80703 67.8344 9.32267 67.1304 9.32267 67.1304C10.3917 67.2184 11.4104 68.0607 11.4104 68.0607C12.8064 69.1796 14.9444 68.5762 14.9444 68.5762C17.2208 70.1602 17.5981 71.5054 17.5981 71.5054C18.3401 72.8129 19.8744 73.0895 19.8744 73.0895C23.6474 74.8622 24.3139 77.2257 24.3139 77.2257C26.6658 78.0178 27.6342 79.0235 27.6342 79.0235C29.3571 81.1733 31.6838 81.8774 31.6838 81.8774C31.6838 81.8774 31.5455 80.7207 32.1994 81.8774C32.8534 83.034 32.1994 84.0649 32.1994 84.0649C31.6838 85.737 33.2685 85.737 33.2685 85.737C34.7525 86.2021 35.6454 88.8548 35.6454 88.8548C34.9537 90.1623 35.6454 90.3383 35.6454 90.3383C37.1295 90.0115 38.2991 90.7155 38.2991 90.7155C39.6951 92.023 38.4877 98.8119 38.4877 98.8119C37.6074 99.6039 34.2117 98.8119 34.2117 98.8119C33.0924 96.3478 30.2627 95.3294 30.2627 95.3294C25.9363 91.055 24.6787 89.5589 24.6787 89.5589C24.163 86.2524 21.3333 83.1597 21.3333 83.1597C19.7109 81.8899 19.472 80.595 19.472 80.595C18.4533 77.1503 16.026 76.3582 16.026 76.3582C15.372 75.3776 15.1456 74.5479 15.1456 74.5479C13.3723 72.0837 12.492 72.0838 12.492 72.0838C10.4043 71.2037 9.00826 69.0162 9.00826 69.0162L8.99568 68.991Z" fill="#588157"/>
<path d="M36.8528 88.4149C38.6764 88.7795 38.9782 90.0619 38.9782 90.0619C39.2675 91.0928 40.4245 91.5831 40.4245 91.5831C41.154 91.5454 41.2169 90.4642 41.2169 90.4642C40.9905 90.0367 39.6951 89.7978 39.6951 89.7978C39.2926 88.8424 39.3681 87.9749 39.3681 87.9749C38.9656 87.384 37.7457 87.5097 37.7457 87.5097C37.1169 87.6732 36.8528 88.4023 36.8528 88.4023V88.4149Z" fill="#588157"/>
<path d="M44.3358 90.0366C43.2794 90.4012 43.3423 91.4196 43.3423 91.4196C43.4429 92.0482 44.5371 91.9476 44.5371 91.9476C45.4929 91.5201 45.2288 90.3007 45.2288 90.3007C44.8263 89.9361 44.3358 90.0366 44.3358 90.0366Z" fill="#588157"/>
<path d="M68.8224 63.7108C68.6464 64.7166 66.458 67.143 66.458 67.143C65.628 67.5579 65.7537 68.9785 65.7537 68.9785C65.3387 69.5065 63.3265 69.3305 63.3265 69.3305C59.8931 72.2347 58.7737 74.2462 58.7737 74.2462C57.4155 75.0759 55.6925 74.7239 55.6925 74.7239C53.152 75.6668 53.5042 78.747 53.5042 78.747C52.5609 79.099 50.5487 78.2692 50.5487 78.2692C49.4294 77.5652 48.2975 77.9675 48.2975 77.9675C46.1091 80.331 47.8196 83.4112 47.8196 83.4112C48.1717 85.2467 49.2407 85.7245 49.2407 85.7245C50.184 86.2022 50.3097 87.5223 50.3097 87.5223C50.2468 90.2252 51.1398 91.0047 51.1398 91.0047C52.737 92.1236 55.5164 91.0047 55.5164 91.0047C55.5793 92.1739 56.0446 92.6516 56.0446 92.6516C57.5287 92.7145 58.8241 91.6082 58.8241 91.6082C61.7292 91.8847 62.7354 92.6642 62.7354 92.6642C62.7983 94.1351 63.1504 94.55 63.1504 94.55C64.5087 94.7889 67.0617 92.6014 67.0617 92.6014C68.8979 91.7087 68.1181 87.5348 68.1181 87.5348C68.6589 85.737 70.9604 85.209 70.9604 85.209C71.6647 84.1404 71.6144 81.6637 71.6144 81.6637C71.9666 80.243 73.2116 80.3562 73.2116 80.3562C73.7399 80.7711 75.161 80.243 75.161 80.243C75.0981 79.539 72.0295 77.8166 72.0295 77.8166C72.7337 76.5091 72.5577 76.1571 72.5577 76.1571C71.3126 74.3216 70.6586 73.1398 70.6586 73.1398C71.3629 71.7192 72.608 71.0655 72.608 71.0655C73.3123 71.1283 74.2052 70.6506 74.2052 70.6506C74.2052 69.9465 73.1362 69.4688 73.1362 69.4688C73.438 68.5259 74.8466 69.0539 74.8466 69.0539C76.5067 68.5762 76.3306 67.8722 76.3306 67.8722C75.7395 67.4573 72.4822 66.3384 72.4822 66.3384C71.715 65.1566 70.3568 63.736 70.3568 63.736H68.8224V63.7108Z" fill="#588157"/>
<path d="M36.8528 102.156C37.7457 101.854 38.5129 99.9058 38.5129 99.9058C40.2233 100.258 41.2169 100.208 41.2169 100.208C41.7702 99.2646 42.4745 99.9058 42.4745 99.9058C43.3674 100.497 44.5999 100.61 44.5999 100.61C45.43 100.912 46.2601 102.144 46.2601 102.144C48.3352 102.973 50.6996 102.621 50.6996 102.621C51.8818 102.03 52.2968 101.188 52.2968 101.188C53.1269 101.025 53.7808 101.905 53.7808 101.905C56.1452 102.257 57.4532 102.684 57.4532 102.684C57.9814 104.143 59.2265 104.683 59.2265 104.683H62.6599V107.399C61.3519 106.569 59.9434 106.091 59.9434 106.091C58.0443 106.682 54.4348 106.33 54.4348 106.33C52.7747 106.267 50.2971 104.62 50.2971 104.62C48.222 104.381 45.8576 104.972 45.8576 104.972C44.9144 104.859 43.3423 103.967 43.3423 103.967C41.242 103.904 40.2359 103.853 40.2359 103.853C40.173 102.37 38.9782 102.257 38.9782 102.257C38.3368 102.37 36.8528 102.144 36.8528 102.144V102.156Z" fill="#588157"/>
<path d="M92.0262 78.3196C91.5483 79.6774 89.7121 80.6328 89.7121 80.6328C87.5867 80.6957 84.5054 80.2808 84.5054 80.2808L82.9082 80.218C82.38 79.0362 80.7198 79.9162 80.7198 79.9162C80.4809 80.57 79.0597 80.7334 79.0597 80.7334C78.0536 81.5129 77.5757 83.1347 77.5757 83.1347V84.8193C77.3368 85.1713 78.4686 84.1656 77.3368 85.1713C76.2049 86.1771 76.3306 88.5406 76.3306 88.5406C76.2049 89.7224 75.3245 90.615 75.3245 90.615C74.6705 91.7968 75.3245 92.5637 75.3245 92.5637C75.8527 93.2174 76.6828 93.1546 76.6828 93.1546C77.0978 94.6381 77.0349 96.2347 77.0349 96.2347C76.8588 97.3034 76.3306 98.1331 76.3306 98.1331C76.3809 98.8371 78.3932 98.7869 78.3932 98.7869C79.3993 98.372 79.2861 95.8827 79.2861 95.8827C79.6383 94.1101 78.9843 91.9477 78.9843 91.9477C78.2171 90.2002 80.6444 90.263 80.6444 90.263C81.2984 90.8539 81.0594 91.5831 81.0594 91.5831C80.5815 92.8151 81.1223 93.582 81.1223 93.582C83.3735 94.2358 82.6566 95.4176 82.6566 95.4176C82.4177 96.3102 83.5118 96.5365 83.5118 96.5365C84.0652 96.3605 84.3671 95.5307 84.3671 95.5307C85.7882 95.4678 86.4925 95.053 86.4925 95.053C86.4296 94.3489 84.8953 93.4563 84.8953 93.4563C84.6563 92.3374 84.5431 91.2688 84.5431 91.2688C84.3042 90.263 82.468 88.9555 82.468 88.9555C81.814 88.2515 82.5812 88.0126 82.5812 88.0126C84.2916 87.7109 85.1216 86.4788 85.1216 86.4788C86.0146 85.5359 87.31 85.7119 87.31 85.7119C88.14 85.1839 86.7818 84.5302 86.7818 84.5302C85.8888 85.121 84.6563 85.1839 84.6563 85.1839C82.053 85.3599 81.7008 86.6046 81.7008 86.6046C81.2229 87.2583 80.2168 86.7806 80.2168 86.7806C79.6257 85.4731 78.5567 84.5302 78.5567 84.5302C78.5567 83.0467 79.4999 81.9278 79.4999 81.9278C82.9333 81.274 85.0085 81.7517 85.0085 81.7517C88.8569 82.5815 90.517 81.7517 90.517 81.7517C91.7621 80.6328 92.4664 79.1242 92.4664 79.1242C92.5795 78.0807 91.9885 78.3196 91.9885 78.3196H92.0262Z" fill="#588157"/>
<path d="M63.012 105.802C64.1188 106.154 65.7663 105.802 65.7663 105.802C66.1688 106.871 65.5022 107.424 65.5022 107.424C64.3074 107.612 63.2384 106.606 63.2384 106.606C62.6725 106.28 63.012 105.789 63.012 105.789V105.802Z" fill="#588157"/>
<path d="M68.1056 105.802C67.1372 106.607 67.439 107.449 67.439 107.449C68.3319 108.505 68.6841 107.889 68.6841 107.889C68.7721 106.871 69.1243 106.38 69.1243 106.38C69.0362 105.676 68.1056 105.802 68.1056 105.802Z" fill="#588157"/>
<path d="M70.4574 106.619C69.5267 107.084 69.3884 108.065 69.3884 108.065C69.8789 108.995 72.5828 108.065 72.5828 108.065C73.8656 107.663 75.0352 107.889 75.0352 107.889C76.0539 106.996 75.3371 106.116 75.3371 106.116C73.9662 106.519 73.2494 106.632 73.2494 106.632C71.212 106.166 70.4574 106.632 70.4574 106.632V106.619Z" fill="#588157"/>
<path d="M75.5886 109.611C76.6325 108.907 78.368 109.611 78.368 109.611C79.1729 110.592 80.0533 110.592 80.0533 110.592C80.8582 111.572 80.0533 111.924 80.0533 111.924C78.7202 112.151 78.0033 110.994 78.0033 110.994C77.3996 110.416 76.3432 110.63 76.3432 110.63C75.2994 110.328 75.5886 109.624 75.5886 109.624V109.611Z" fill="#588157"/>
<path d="M77.3493 107.298C78.9088 105.538 80.7199 106.418 80.7199 106.418C82.9333 107.399 84.5809 107.298 84.5809 107.298L86.4045 106.154C86.2284 107.524 84.4551 108.065 84.4551 108.065C82.7195 108.103 79.9778 107.889 79.9778 107.889C78.3806 108.065 77.3619 107.298 77.3619 107.298H77.3493Z" fill="#588157"/>
<path d="M97.8491 106.38C96.8304 107.084 94.6044 106.934 94.6044 106.934C91.1458 107.663 88.6557 109.8 88.6557 109.8C87.9514 111.359 88.6557 111.962 88.6557 111.962C90.429 112.289 91.9004 110.378 91.9004 110.378C93.5857 108.643 95.9375 108.078 95.9375 108.078C97.8869 107.675 97.8491 106.38 97.8491 106.38Z" fill="#588157"/>
<path d="M98.478 92.8025C97.585 91.3818 95.1075 91.6459 95.1075 91.6459C94.705 92.2619 95.6357 92.9785 95.6357 92.9785C96.2519 93.9088 97.8491 93.5945 97.8491 93.5945C98.654 93.5442 98.4654 92.7899 98.4654 92.7899L98.478 92.8025Z" fill="#588157"/>
<path d="M101.132 91.6208C102.025 91.0173 104.238 91.0173 104.238 91.0173C106.452 91.0676 108.061 91.8597 108.061 91.8597C108.866 93.8963 108.325 93.8586 108.325 93.8586C107.621 93.4186 106.766 92.438 106.766 92.438L104.766 92.4883C104.012 92.7146 103.207 92.0482 103.207 92.0482C102.54 92.3123 102.1 92.4505 102.1 92.4505C101.345 92.2745 101.119 91.6334 101.119 91.6334L101.132 91.6208Z" fill="#588157"/>
<path d="M109.432 86.5416C109.923 85.2592 112.715 84.0146 112.715 84.0146C114.4 83.9643 114.84 84.7186 114.84 84.7186C115.368 85.6993 117.104 85.0707 117.104 85.0707C118.437 85.737 117.544 88.8423 117.544 88.8423C117.808 89.8606 119.053 90.1246 119.053 90.1246C119.896 91.0172 120.122 92.0356 120.122 92.0356C120.65 92.8779 121.896 92.4379 121.896 92.4379C123.002 90.3509 124.474 89.3703 124.474 89.3703C125.178 89.1943 126.121 89.1943 126.121 89.1943C126.209 88.4903 126.876 87.6856 126.876 87.6856C128.435 87.3713 129.718 87.8617 129.718 87.8617C131.403 88.6663 133.177 89.5966 133.177 89.5966C135.126 90.2629 136.774 90.4892 136.774 90.4892L137 108.643C135.755 106.431 134.07 105.764 134.07 105.764C132.737 105.903 131.856 105.764 131.856 105.764C131.19 106.468 129.19 106.607 129.19 106.607C127.454 106.607 127.542 105.714 127.542 105.714C128.473 104.117 130.158 103.539 130.158 103.539C130.963 102.169 130.246 100.522 130.246 100.522C128.913 97.3284 125.543 96.7501 125.543 96.7501C122.877 96.1718 123.216 95.5055 123.216 95.5055C121.279 95.2792 119.77 94.7511 119.77 94.7511C119.104 93.9088 117.77 93.6448 117.77 93.6448C117.154 93.4185 116.752 91.6207 116.752 91.6207C116.312 92.8402 115.683 94.2985 115.683 94.2985C114.702 94.8266 113.909 93.8585 113.909 93.8585C114.438 92.2996 113.155 91.6207 113.155 91.6207C111.998 91.1932 111.646 90.6149 111.646 90.6149L112.803 90.5269C113.909 90.8412 114.45 90.2629 114.45 90.2629C115.117 89.7349 115.871 90.1749 115.871 90.1749C116.764 90.5269 116.978 89.8229 116.978 89.8229C117.154 88.8046 115.909 88.9806 115.909 88.9806C114.752 89.5589 113.117 89.3326 113.117 89.3326C112.01 88.9806 111.558 88.2262 111.558 88.2262C111.646 86.9439 110.627 87.0696 110.627 87.0696C109.96 87.2959 109.432 86.5416 109.432 86.5416Z" fill="#588157"/>
<path d="M118.802 98.2588C117.783 99.1011 118.047 100.346 118.047 100.346C117.607 100.786 117.695 101.414 117.695 101.414C117.745 102.395 118.009 102.521 118.009 102.521C118.99 102.169 118.814 101.364 118.814 101.364C119.078 100.383 119.657 100.383 119.657 100.383C120.097 99.1011 118.814 98.2588 118.814 98.2588H118.802Z" fill="#588157"/>
<path d="M100.075 76.7858C99.4086 77.7664 99.2703 79.1367 99.2703 79.1367V81.01C99.8488 80.0796 100.465 79.6396 100.465 79.6396C101.396 78.395 100.063 76.7983 100.063 76.7983L100.075 76.7858Z" fill="#588157"/>
<path d="M103.006 78.6841C101.723 78.5458 101.32 79.7024 101.32 79.7024C100.88 80.4567 100.037 80.771 100.037 80.771C99.2703 80.9973 99.2703 81.8397 99.2703 81.8397C99.5847 84.1529 101.132 85.561 101.132 85.561C101.748 85.5107 101.748 84.8947 101.748 84.8947C101.044 83.9643 100.591 83.5243 100.591 83.5243C100.415 81.8774 100.792 81.7894 100.792 81.7894C101.974 82.1414 102.767 82.4054 102.767 82.4054C103.257 82.1414 102.993 81.5631 102.993 81.5631C101.484 80.9848 101.622 80.4567 101.622 80.4567C102.691 80.0544 103.307 79.5264 103.307 79.5264L102.993 78.6841H103.006Z" fill="#588157"/>
<path d="M93.3216 55.6647C94.0888 57.563 93.3216 57.7391 93.3216 57.7391C91.3093 57.6762 91.6112 58.5688 91.6112 58.5688C91.4351 59.3357 90.4919 58.9837 90.4919 58.9837C89.8379 59.3986 89.5486 60.2912 89.5486 60.2912C89.1336 59.4614 87.8885 58.6317 87.8885 58.6317C86.6434 60.1655 84.8701 60.5803 84.8701 60.5803C83.7508 62.001 83.3358 63.0067 83.5119 63.4216C83.6879 63.8365 84.4048 63.4216 84.4048 63.4216C84.5809 61.649 86.1152 61.4101 86.1152 61.4101C87.7753 61.473 87.5993 62.0638 87.5993 62.0638C88.0772 61.2341 89.2594 61.3598 89.2594 61.3598C89.7876 62.7176 89.4983 63.3713 89.4983 63.3713C88.794 65.2068 91.5106 66.3258 91.5106 66.3258C92.5796 65.9109 92.9317 67.1555 92.9317 67.1555C93.5228 67.2812 94.051 65.9737 94.051 65.9737C92.6299 64.5531 93.5228 62.9565 93.5228 62.9565C94.8308 63.1953 95.12 64.44 95.12 64.44C95.8243 64.44 95.8872 63.7359 95.8872 63.7359C96.5915 62.4284 96.5915 61.4352 96.5915 61.4352C96.0004 57.5253 95.5225 57.1733 95.5225 57.1733C94.3403 55.7527 93.3342 55.6898 93.3342 55.6898L93.3216 55.6647Z" fill="#588157"/>
<path d="M79.8269 37.1461C78.5189 35.3734 79.8269 30.8726 79.8269 30.8726C80.4809 29.804 81.487 30.2817 81.487 30.2817C82.9082 31.0486 83.8011 30.6338 83.8011 30.6338C84.3293 30.156 84.4551 30.5709 84.4551 30.5709C84.4551 31.3378 84.1029 32.6956 84.1029 32.6956C84.9959 33.8773 85.1091 34.2294 85.1091 34.2294C84.9959 36.5426 83.1597 37.5484 83.1597 37.5484C81.9146 39.6228 82.1913 40.2639 82.1913 40.2639C83.5118 40.616 83.0968 41.4457 83.0968 41.4457C82.9836 42.4515 83.4741 43.1052 83.4741 43.1052C84.694 42.7532 85.9391 42.6275 85.9391 42.6275C87.7753 43.6961 89.3096 43.5704 89.3096 43.5704C90.429 43.8721 90.0265 44.4001 90.0265 44.4001C88.4796 44.3373 88.8317 45.1042 88.8317 45.1042C89.0707 46.4117 90.0265 46.1099 90.0265 46.1099C89.9007 47.1157 89.3096 47.2288 89.3096 47.2288C88.7185 47.2288 86.8195 44.9785 86.8195 44.9785C85.1594 45.8082 83.9772 45.3305 83.9772 45.3305C83.1471 43.6207 82.556 43.847 82.556 43.847C82.2542 44.4379 81.1978 44.0858 81.1978 44.0858C79.8898 43.3818 80.0156 43.0172 80.0156 43.0172C80.7198 41.6594 81.0217 41.2446 81.0217 41.2446C80.4306 40.3519 79.6005 41.0685 79.6005 41.0685C79.0723 41.3074 78.1794 40.3645 78.1794 40.3645C78.2423 38.4159 77.7644 38.001 77.7644 38.001L77.5254 36.9324C77.5254 36.9324 77.1733 36.1026 78.0033 36.8695C78.8334 37.6364 79.8395 37.1084 79.8395 37.1084L79.8269 37.1461Z" fill="#588157"/>
<path d="M79.588 45.0665C81.6002 45.3054 82.2542 46.1352 82.2542 46.1352C82.1913 48.0335 81.4241 48.3227 81.4241 48.3227C80.3551 47.5558 80.418 46.7009 80.418 46.7009C79.6508 45.7203 79.588 45.0791 79.588 45.0791V45.0665Z" fill="#588157"/>
<path d="M83.776 49.4417C84.2664 50.6863 83.776 52.1572 83.776 52.1572C83.3358 53.2258 83.4615 53.691 83.4615 53.691C85.0336 53.3893 87.1716 50.7366 87.1716 50.7366C85.9266 49.844 83.776 49.4291 83.776 49.4291V49.4417Z" fill="#588157"/>
<path d="M90.0139 47.5558C92.4915 47.254 93.1958 48.0335 93.1958 48.0335C93.4977 49.3913 93.8498 51.5788 93.8498 51.5788C93.4348 52.2325 92.7808 51.5788 92.7808 51.5788L92.0136 49.9822C91.3093 48.8632 90.4164 49.0392 90.4164 49.0392C89.7121 48.2095 90.0139 47.5558 90.0139 47.5558Z" fill="#588157"/>
<path d="M87.8759 53.7036C88.8192 52.459 87.8759 52.1069 87.8759 52.1069C85.9266 52.9367 86.1026 54.1813 86.1026 54.1813C84.8575 55.3631 85.0336 55.6648 85.0336 55.6648C86.1026 57.1483 87.1591 57.3243 87.1591 57.3243C87.637 55.9037 87.8633 53.7162 87.8633 53.7162L87.8759 53.7036Z" fill="#588157"/>
<path d="M90.3912 50.2462C90.7434 50.8622 91.9004 51.2268 91.9004 51.2268C92.2526 52.1572 92.567 53.7161 92.567 53.7161C92.1268 54.4201 91.2842 54.1184 91.2842 54.1184C91.5106 52.9241 90.932 52.22 90.932 52.22C90.0391 51.5914 90.4038 50.2588 90.4038 50.2588L90.3912 50.2462Z" fill="#588157"/>
<path d="M76.3432 51.1388C76.0539 52.6474 75.8779 53.9298 75.8779 53.9298C74.2303 54.9984 72.9475 56.5071 72.9475 56.5071C71.3 57.3494 70.5957 58.9083 70.5957 58.9083C70.9478 59.3106 71.2623 59.1346 71.2623 59.1346C72.369 57.714 73.4757 57.1357 73.4757 57.1357C74.7334 56.067 75.2616 55.4007 75.2616 55.4007C77.5254 54.4075 77.9656 53.9801 77.9656 53.9801C78.1039 53.1755 77.211 52.9617 77.211 52.9617C77.3493 51.4531 76.3432 51.1388 76.3432 51.1388Z" fill="#588157"/>
</svg>
