<svg width="144" height="131" viewBox="0 0 144 131" fill="none" xmlns="http://www.w3.org/2000/svg">
<path d="M33.9406 53.1499C43.6246 66.7994 46.0443 88.3598 46.0443 88.3598C55.6324 96.9375 62.836 87.9203 62.836 87.9203C63.715 70.0981 70.2417 57.9641 70.2417 57.9641C64.5232 53.1651 65.3467 54.923 65.3467 54.923C64.205 59.0401 63.0229 62.1721 62.0227 64.4403C60.7042 67.4359 56.4103 67.4612 55.112 64.4555C53.1621 59.9292 54.5968 54.7008 54.5968 54.7008L49.9947 53.1499C50.414 58.348 50.3029 62.1065 49.9998 64.7737C49.7624 66.8651 46.9031 67.2793 46.0747 65.3445C43.2457 58.737 41.8414 53.1499 41.8414 53.1499H33.9255H33.9406Z" fill="#409140" stroke="#2B5916" stroke-width="1.38" stroke-miterlimit="10"/>
<path d="M21.0135 28.013C20.5993 20.8144 29.0961 22.0116 29.965 26.6389C32.1271 22.3854 37.6081 20.0112 39.0882 24.7547C44.7309 21.6631 47.575 22.2743 48.2165 26.452C51.2728 23.7645 55.6475 26.5834 55.0514 30.1498C58.8502 29.9326 61.366 35.3277 59.1281 38.2627C64.9274 37.9293 63.0128 46.5525 59.6535 47.4062C63.3007 49.6643 59.4564 54.4987 56.577 53.256C57.5924 57.0094 48.0599 58.6814 47.9943 54.0087C43.2861 58.4339 39.4267 55.0443 40.5532 50.1644C36.3755 57.7519 31.5815 54.6907 30.9298 50.3159C28.2929 56.8477 23.1554 54.6603 23.2564 49.4925C19.695 57.3377 11.9913 48.9924 16.7752 44.9056C9.41493 42.5213 9.86958 36.4745 15.4264 35.353C11.2436 25.3861 21.0236 28.0079 21.0236 28.0079L21.0135 28.013Z" fill="#256B25" stroke="#2B5916" stroke-width="1.2" stroke-miterlimit="10"/>
<path d="M35.9815 7.40238C35.5269 -0.56405 44.0288 0.815046 44.9279 5.93741C47.0648 1.24444 52.5357 -1.34705 54.0411 3.9117C59.6636 0.522052 62.5127 1.21918 63.1795 5.84648C66.2206 2.89632 70.6155 6.03339 70.0396 9.97871C73.8385 9.76149 76.3895 15.7477 74.1668 18.9807C79.9661 18.6473 78.1071 28.1747 74.7478 29.0992C78.4102 31.6149 74.5962 36.9444 71.7067 35.5551C72.7473 39.7126 63.2199 41.5009 63.1239 36.3382C58.4411 41.2029 54.5614 37.4293 55.6526 32.0392C51.5203 40.4047 46.7061 36.9949 46.0292 32.1453C43.4327 39.354 38.2749 36.9039 38.3507 31.1905C34.8348 39.849 27.0805 30.5692 31.8392 26.0783C24.4638 23.3908 24.8831 16.7075 30.4297 15.5002C26.1864 4.45222 35.9866 7.41248 35.9866 7.41248L35.9815 7.40238Z" fill="#256B25" stroke="#2B5916" stroke-width="1.26" stroke-miterlimit="10"/>
<path d="M55.7991 20.8194C55.3848 13.6208 63.8817 14.818 64.7506 19.4453C66.9127 15.1918 72.3937 12.8176 73.8738 17.5611C79.5165 14.4695 82.3606 15.0807 83.0021 19.2584C86.0584 16.5709 90.4331 19.3897 89.837 22.9562C93.6358 22.739 96.1515 28.1341 93.9137 31.0691C99.7129 30.7357 97.7984 39.3589 94.439 40.2126C98.0863 42.4707 94.242 47.3051 91.3626 46.0624C92.378 49.8158 82.8455 51.4878 82.7798 46.8151C78.0717 51.2403 74.2123 47.8507 75.3388 42.9708C71.1611 50.5583 66.3671 47.4971 65.7154 43.1223C63.0785 49.6541 57.941 47.4667 58.042 42.2989C54.4806 50.1441 46.7768 41.7988 51.5607 37.712C44.2005 35.3277 44.6551 29.2809 50.2119 28.1594C46.0292 18.1925 55.8092 20.8143 55.8092 20.8143L55.7991 20.8194Z" fill="#256B25" stroke="#2B5916" stroke-width="1.2" stroke-miterlimit="10"/>
<path d="M39.2398 27.321C38.7447 18.6979 48.1206 20.1831 49.1006 25.7247C51.4647 20.6428 57.4964 17.8341 59.1483 23.5222C65.3517 19.8497 68.4938 20.6024 69.2212 25.6035C72.5755 22.4058 77.415 25.8005 76.7785 30.0691C80.9663 29.8266 83.775 36.3028 81.3199 39.8087C87.7153 39.4399 85.6492 49.7553 81.9463 50.7556C85.9826 53.4733 81.7695 59.2423 78.587 57.742C79.7286 62.243 69.2212 64.1879 69.1253 58.5957C63.9574 63.8646 59.6787 59.7879 60.8961 53.9482C56.3295 63.0058 51.0303 59.3181 50.2827 54.0745C47.4133 61.8793 41.7302 59.2322 41.8161 53.049C37.9314 62.4198 29.3891 52.3872 34.6428 47.5225C26.5147 44.6229 26.9845 37.3889 33.1021 36.0806C28.4343 24.1284 39.2347 27.321 39.2347 27.321H39.2398Z" fill="#256B25" stroke="#2B5916" stroke-width="1.38" stroke-miterlimit="10"/>
<path d="M25.3175 73.6244C27.52 69.0627 25.5499 62.531 25.5499 62.531C29.0709 61.2125 28.7021 62.2885 28.7021 62.2885C29.5407 65.8954 27.6059 73.6244 27.6059 73.6244C26.7269 73.9072 25.3175 73.6244 25.3175 73.6244Z" fill="#409140" stroke="#2B5916" stroke-width="0.77" stroke-miterlimit="10"/>
<path d="M22.7159 70.381C19.9021 69.4565 15.5779 69.9567 12.0923 70.6386C7.92975 71.457 4.38855 74.2303 2.69625 78.1201C0.503845 83.1717 0.756427 87.6273 1.67077 90.9765C2.6912 94.6895 5.1564 97.8366 8.47533 99.7967C23.7212 108.799 37.0625 103.585 37.0625 103.585C53.5561 99.7411 51.4749 81.9695 51.4749 81.9695C50.1412 69.9718 39.9167 69.209 35.0166 69.5475C33.7436 69.6334 32.506 69.9365 31.3037 70.3608C28.7627 71.2549 25.9085 71.0276 24.3829 70.8053C23.8171 70.7195 23.2615 70.5679 22.7159 70.3861V70.381Z" fill="#E03614" stroke="#892520" stroke-width="1.5" stroke-miterlimit="10"/>
<path d="M26.2773 69.4871C21.357 66.3349 8.24296 67.6129 11.3245 67.8099C14.406 68.007 21.7965 69.4871 21.7965 69.4871C10.0009 69.2396 8.76833 73.7507 8.76833 73.7507C13.9614 71.7048 23.3777 71.7048 23.3777 71.7048C17.5683 72.5837 17.1288 78.6558 17.1288 78.6558C19.8567 75.4884 27.1108 72.5837 27.1108 72.5837C30.9854 76.8776 28.9092 81.7373 28.9092 81.7373C30.1519 76.3674 29.3739 72.8262 29.3739 72.8262C35.7592 73.7961 37.108 79.5398 37.108 79.5398C35.9663 74.7004 31.829 71.7957 31.829 71.7957C38.5174 70.3863 41.7757 72.412 41.7757 72.412C37.8152 68.9819 30.6874 69.4921 30.6874 69.4921C37.8152 68.9819 40.1036 69.4921 40.1036 69.4921C37.0221 67.2189 28.7021 68.8051 28.7021 68.8051" fill="#409140"/>
<path d="M26.2773 69.4871C21.357 66.3349 8.24296 67.6129 11.3245 67.8099C14.406 68.007 21.7965 69.4871 21.7965 69.4871C10.0009 69.2396 8.76833 73.7507 8.76833 73.7507C13.9614 71.7048 23.3777 71.7048 23.3777 71.7048C17.5683 72.5837 17.1288 78.6558 17.1288 78.6558C19.8567 75.4884 27.1108 72.5837 27.1108 72.5837C30.9854 76.8776 28.9092 81.7373 28.9092 81.7373C30.1519 76.3674 29.3739 72.8262 29.3739 72.8262C35.7592 73.7961 37.108 79.5398 37.108 79.5398C35.9663 74.7004 31.829 71.7957 31.829 71.7957C38.5174 70.3863 41.7757 72.412 41.7757 72.412C37.8152 68.9819 30.6874 69.4921 30.6874 69.4921C37.8152 68.9819 40.1036 69.4921 40.1036 69.4921C37.0221 67.2189 28.7021 68.8051 28.7021 68.8051" stroke="#2B5916" stroke-width="0.77" stroke-miterlimit="10"/>
<path d="M98.541 59.6009C103.769 52.569 95.5201 39.5206 95.5201 39.5206C103.643 44.1226 102.976 51.4021 102.976 51.4021C106.73 31.7916 101.405 30.0134 101.405 30.0134C109.528 35.3732 104.916 52.6448 104.916 52.6448C118.646 38.5709 123.693 40.2632 123.693 40.2632C111.862 50.4877 107.24 56.4284 107.24 56.4284C124.572 58.439 124.577 62.2126 124.577 62.2126C110.756 58.5501 103.689 60.5809 103.689 60.5809C114.731 62.0711 115.504 67.8805 115.504 67.8805C110.321 63.8392 102.168 63.1168 102.168 63.1168L98.5359 59.5958L98.541 59.6009Z" fill="#256B25" stroke="#2B5916" stroke-width="1.38" stroke-miterlimit="10"/>
<path d="M87.1647 59.9596C61.3559 80.6915 41.3463 107.435 38.1436 111.82C37.886 112.168 37.6738 112.542 37.5324 112.951C35.7643 118.069 30.6722 119.331 27.3382 119.584C25.1508 119.751 23.2211 121.12 22.3572 123.14C20.6953 127.025 21.3267 128.98 21.3267 128.98C22.6048 126.954 23.8323 125.565 24.873 124.626C26.1813 123.438 27.8736 122.767 29.6417 122.681C35.7895 122.378 38.5376 119.463 39.745 117.286C40.7149 115.533 42.2455 114.169 44.0439 113.295C64.796 103.156 91.0999 83.1719 100.142 76.1046C102.592 74.1901 103.997 71.1793 103.724 68.0826C103.188 62.0005 99.1573 59.4191 95.6464 58.3279C92.7366 57.4237 89.5592 58.0501 87.1798 59.9596H87.1647Z" fill="#E28413" stroke="#8C501F" stroke-width="2.68" stroke-linejoin="round"/>
<path d="M51.6163 94.9675C57.9612 95.6495 58.1532 100.721 58.1532 100.721L51.6163 94.9675Z" fill="#E28413"/>
<path d="M51.6163 94.9675C57.9612 95.6495 58.1532 100.721 58.1532 100.721" stroke="#8C501F" stroke-width="2.68" stroke-miterlimit="10" stroke-linecap="round"/>
<path d="M61.1033 84.3792C67.2158 85.2228 70.9691 90.1532 70.954 92.7649L61.1033 84.3792Z" fill="#E28413"/>
<path d="M61.1033 84.3792C67.2158 85.2228 70.9691 90.1532 70.954 92.7649" stroke="#8C501F" stroke-width="2.68" stroke-miterlimit="10" stroke-linecap="round"/>
<path d="M69.7214 75.5491C79.4812 75.2763 82.3808 83.9146 82.3808 83.9146L69.7214 75.5491Z" fill="#E28413"/>
<path d="M69.7214 75.5491C79.4812 75.2763 82.3808 83.9146 82.3808 83.9146" stroke="#8C501F" stroke-width="2.68" stroke-miterlimit="10" stroke-linecap="round"/>
<path d="M79.2336 66.6631C89.8774 64.9708 92.5346 72.8362 92.8326 74.8265L79.2336 66.6631Z" fill="#E28413"/>
<path d="M79.2336 66.6631C89.8774 64.9708 92.5346 72.8362 92.8326 74.8265" stroke="#8C501F" stroke-width="2.68" stroke-miterlimit="10" stroke-linecap="round"/>
<path d="M111.443 77.1705C118.854 72.4927 115.853 57.3479 115.853 57.3479C121.773 64.5667 118.53 71.1186 118.53 71.1186C129.093 54.1704 124.764 50.5989 124.764 50.5989C130.412 58.5249 119.894 72.9776 119.894 72.9776C137.772 64.7889 141.874 68.1887 141.874 68.1887C127.153 73.4676 120.702 77.3473 120.702 77.3473C136.15 85.4602 134.791 88.9863 134.791 88.9863C123.213 80.5955 115.888 79.9438 115.888 79.9438C125.653 85.3087 124.284 91.012 124.284 91.012C120.905 85.3743 113.559 81.7675 113.559 81.7675L111.438 77.1755L111.443 77.1705Z" fill="#256B25" stroke="#2B5916" stroke-width="1.38" stroke-miterlimit="10"/>
<path d="M100.703 73.4121C69.1606 83.4648 40.8664 101.206 36.2947 104.141C35.931 104.374 35.5925 104.646 35.3147 104.98C31.824 109.117 26.6208 108.46 23.413 107.495C21.3115 106.864 19.0181 107.445 17.4875 109.021C14.5424 112.047 14.4211 114.098 14.4211 114.098C16.3407 112.668 17.9876 111.815 19.2959 111.309C20.9428 110.678 22.7664 110.653 24.4436 111.208C30.2883 113.138 33.9053 111.41 35.8097 109.814C37.3454 108.531 39.2651 107.809 41.2554 107.637C64.2656 105.652 96 96.4728 106.982 93.1387C109.958 92.2345 112.352 89.9309 113.211 86.9454C114.898 81.0804 112.069 77.221 109.185 74.9377C106.795 73.0433 103.603 72.4876 100.698 73.4121H100.703Z" fill="#E28413" stroke="#8C501F" stroke-width="2.68" stroke-linejoin="round"/>
<path d="M54.9352 93.2751C60.6082 96.195 58.9614 100.994 58.9614 100.994L54.9352 93.2751Z" fill="#E28413"/>
<path d="M54.9352 93.2751C60.6082 96.195 58.9614 100.994 58.9614 100.994" stroke="#8C501F" stroke-width="2.68" stroke-miterlimit="10" stroke-linecap="round"/>
<path d="M67.5997 86.8091C72.9999 89.7997 74.7275 95.7454 73.7728 98.1803L67.5997 86.8091Z" fill="#E28413"/>
<path d="M67.5997 86.8091C72.9999 89.7997 74.7275 95.7454 73.7728 98.1803" stroke="#8C501F" stroke-width="2.68" stroke-miterlimit="10" stroke-linecap="round"/>
<path d="M78.8143 81.6716C88.0184 84.9299 87.6092 94.033 87.6092 94.033L78.8143 81.6716Z" fill="#E28413"/>
<path d="M78.8143 81.6716C88.0184 84.9299 87.6092 94.033 87.6092 94.033" stroke="#8C501F" stroke-width="2.68" stroke-miterlimit="10" stroke-linecap="round"/>
<path d="M90.8877 76.8066C101.43 79.0597 101.077 87.3545 100.632 89.3195L90.8877 76.8066Z" fill="#E28413"/>
<path d="M90.8877 76.8066C101.43 79.0597 101.077 87.3545 100.632 89.3195" stroke="#8C501F" stroke-width="2.68" stroke-miterlimit="10" stroke-linecap="round"/>
</svg>
