<svg width="117" height="146" viewBox="0 0 117 146" fill="none" xmlns="http://www.w3.org/2000/svg">
<path d="M20.5109 3.91022C22.1466 -1.06753 23.9448 0.125181 23.9448 0.125181C28.04 1.15968 29.1885 1.95076 29.1885 1.95076C32.1352 7.51271 36.068 13.8657 36.068 13.8657C39.8384 16.6163 42.2862 14.9002 42.2862 14.9002C46.5438 16.1051 50.3142 20.9125 50.3142 20.9125C50.9639 24.8679 54.4094 23.663 54.4094 23.663C56.544 21.0829 57.3561 22.6285 57.3561 22.6285C60.7901 25.3791 62.101 19.5372 62.101 19.5372L63.5744 13.3546C64.7229 17.6508 65.709 19.878 65.709 19.878C68.3308 23.663 70.4538 21.0829 70.4538 21.0829C70.6163 17.2978 67.3447 17.2978 67.3447 17.2978C66.1962 13.3424 68.1684 13.8657 68.1684 13.8657C77.0085 13.6953 81.4401 14.3769 81.4401 14.3769C83.5748 17.1274 86.8463 17.4682 86.8463 17.4682C88.482 21.0707 86.8463 21.2533 86.8463 21.2533C84.3868 19.0139 84.5492 20.9125 84.5492 20.9125C88.3196 22.9693 87.5655 23.8334 87.5655 23.8334C87.9832 27.4359 87.6236 28.6408 87.6236 28.6408C83.7256 28.8112 82.2522 26.0606 82.2522 26.0606C80.6165 26.5718 79.3055 27.9471 79.3055 27.9471C77.0085 26.231 79.1431 25.1965 79.1431 25.1965C80.454 23.1397 79.7928 19.525 79.7928 19.525C76.1848 16.0929 73.737 17.4682 73.737 17.4682C72.7509 19.3547 73.737 22.2756 73.737 22.2756C73.5746 25.8781 71.1151 27.2533 71.1151 27.2533C70.7903 32.584 67.8436 34.3001 67.8436 34.3001C64.7345 39.2779 66.5326 42.3813 66.5326 42.3813C72.2636 46.1664 76.034 48.2232 76.034 48.2232C80.1292 47.8824 79.9668 49.9393 79.9668 49.9393C81.6026 54.7466 83.2383 54.917 83.2383 54.917C84.8741 54.4059 84.3868 51.3145 84.3868 51.3145C82.7511 48.564 83.0759 47.5295 83.0759 47.5295C85.3729 43.2333 83.5631 40.4827 83.5631 40.4827C81.6026 39.1075 81.2661 37.3914 81.2661 37.3914C81.591 34.3001 79.9552 32.9248 79.9552 32.9248C79.9552 29.4927 84.7001 31.0384 84.7001 31.0384C88.4704 32.2433 88.6329 33.0952 88.6329 33.0952C90.2686 36.0161 91.742 35.3346 91.742 35.3346L92.2292 31.2088C95.3383 31.3792 98.9463 35.6754 98.9463 35.6754C103.691 38.7667 104.19 36.5395 104.19 36.5395C108.285 38.5963 110.246 41.5172 110.246 41.5172C110.408 45.3023 111.882 44.0974 111.882 44.0974C114.016 42.5517 115.977 45.6431 115.977 45.6431C114.179 49.9393 110.083 50.4504 110.083 50.4504L108.61 44.0974C107.299 41.6876 106.812 44.9615 106.812 44.9615C106.162 47.5417 101.568 49.5985 101.568 49.5985C98.7839 52.349 97.7978 56.3045 97.7978 56.3045C101.406 52.0083 102.879 51.8379 102.879 51.8379L104.028 56.3045C108.448 55.4403 108.61 52.702 108.61 52.702C110.571 53.0428 110.571 54.7588 110.571 54.7588C110.246 57.8501 106.151 63.1808 106.151 63.1808C104.016 64.5561 105.002 59.2254 105.002 59.2254C102.38 65.408 100.582 69.1079 100.582 69.1079L102.717 70.0572C101.568 71.7732 99.2827 71.542 99.2827 71.542C96.1736 76.2398 96.9857 83.1162 96.9857 83.1162C97.3105 87.0716 95.0251 89.8222 95.0251 89.8222C90.2802 95.8344 91.4171 99.2665 91.4171 99.2665C95.5123 104.597 94.5262 107.859 94.5262 107.859C94.2014 110.098 91.742 107.859 91.742 107.859C89.4449 104.256 89.4449 102.017 89.4449 102.017C85.837 98.7553 80.4424 100.812 80.4424 100.812C71.4399 101.847 66.521 106.313 66.521 106.313C62.5883 109.405 65.535 122.293 65.535 122.293C69.1429 127.965 74.8739 126.249 74.8739 126.249C78.1454 124.192 78.4818 120.577 78.4818 120.577C79.7928 118.167 84.5376 118.52 84.5376 118.52C82.0782 122.305 83.0643 125.226 83.0643 125.226C83.0643 129.182 81.9158 130.387 81.9158 130.387C85.8486 131.762 89.1201 129.523 89.1201 129.523C92.0668 129.523 92.2292 131.932 92.2292 131.932C92.8789 135.364 92.7165 139.149 92.7165 139.149C96.1504 142.411 98.7723 141.206 98.7723 141.206C100.907 138.796 104.341 139.661 104.341 139.661C106.475 140.865 108.274 137.774 108.274 137.774C108.436 133.819 110.234 133.989 110.234 133.989C113.842 130.727 115.153 128.829 115.153 128.829C116.302 130.715 115.977 135.705 115.977 135.705L111.232 136.216C108.935 141.194 110.745 143.433 110.745 143.433C111.568 145.673 109.271 144.87 109.271 144.87C106 144.87 104.526 143.093 104.526 143.093C104.364 139.661 100.269 142.582 100.269 142.582C101.417 144.87 99.4451 144.87 99.4451 144.87C93.8766 143.604 88.9577 141.206 88.9577 141.206C86.8231 135.535 80.7673 135.876 80.7673 135.876C74.8739 134.5 72.7393 132.443 72.7393 132.443C69.3053 131.068 68.2612 132.273 68.2612 132.273C60.9525 132.103 50.6275 124.374 50.6275 124.374C49.9778 119.397 49.3165 117.668 49.3165 117.668C46.5322 111.145 42.9243 108.224 42.9243 108.224C41.7758 105.985 38.9915 101.177 38.9915 101.177C38.1678 96.1995 36.2072 98.086 36.2072 98.086C35.72 102.723 39.4787 107.019 39.4787 107.019C43.8988 115.782 43.0867 116.464 43.0867 116.464L39.4787 112.678C39.3163 109.758 38.4926 109.076 38.4926 109.076C35.2211 105.985 34.3974 104.609 34.3974 104.609C36.358 104.269 35.3835 102.37 35.3835 102.37C33.5854 97.0393 31.6132 91.5504 31.6132 91.5504C26.6943 88.2887 26.207 79.8667 26.207 79.8667C24.4088 72.6495 29.641 63.0226 29.641 63.0226C29.4785 56.1462 27.3439 53.7486 27.3439 53.7486C27.5064 44.8155 27.8312 44.1217 27.8312 44.1217C23.1327 42.2353 25.6966 39.8255 25.6966 39.8255L25.0469 32.6084C22.9123 23.3344 18.8287 23.6752 18.8287 23.6752C13.4225 22.8111 7.0419 22.1295 7.0419 22.1295C1.79818 21.2654 0 18.8678 0 18.8678C2.45945 17.6629 3.60796 19.9023 3.60796 19.9023C8.68927 21.1072 9.50135 18.5271 9.50135 18.5271L8.19042 14.9246C8.028 11.3221 9.9886 8.74193 9.9886 8.74193C12.6105 6.50255 14.4086 8.06038 14.4086 8.06038C16.8681 10.6405 17.6802 8.23077 17.6802 8.23077C16.3692 5.99139 15.2207 5.65061 15.2207 5.65061C15.8704 1.86557 17.3553 2.04813 17.3553 2.04813C19.8148 2.3889 18.6663 4.79867 18.6663 4.79867C20.6269 6.51472 20.4644 3.93456 20.4644 3.93456L20.5109 3.91022Z" fill="#588157"/>
</svg>
